<svg xmlns="http://www.w3.org/2000/svg" viewBox="0 0 1296 1296"><path d="M1225.274 121.103c-3.854 1.173-10.172 5.374-14.04 9.334-3.869 3.96-87.224 143.521-185.234 310.136-102.648 174.5-182.152 307.387-187.521 313.435-12.253 13.803-32.144 23.701-50.503 25.132-11.508.896-69.45-9.367-374.272-66.295-220.289-41.14-363.063-66.873-366.841-66.118-8.288 1.658-18.187 8.946-21.764 16.023-5.389 10.662-8.533 33.781-5.744 42.233 2.019 6.116 14.942 20.777 18.314 20.777.44 0 31.66 7.311 69.38 16.247 46.528 11.023 71.973 18.094 79.129 21.989 13.639 7.423 26.572 21.577 33.796 36.986 4.927 10.51 5.731 15.03 5.642 31.698l-.104 19.44-40.396 115.76c-22.218 63.668-40.396 118.926-40.396 122.796 0 5.122 1.998 9.034 7.344 14.38l7.344 7.344h26.102c25.519 0 26.242-.133 32.356-5.94 3.439-3.267 47.344-64.082 97.567-135.144 50.223-71.063 94.39-131.551 98.149-134.418 9.158-6.985 23.358-11.778 34.897-11.778 8.7 0 415.445 94.834 425.241 99.146 2.376 1.046 50.116 42.199 106.089 91.452 55.973 49.252 104.061 91.155 106.861 93.116 3.925 2.749 10.14 3.566 27.125 3.566 20.489 0 22.494-.388 28.606-5.53 8.274-6.962 10.757-18.129 6.17-27.749-1.804-3.783-35.067-58.229-73.917-120.992-38.851-62.762-72.114-118.122-73.917-123.021-4.147-11.263-4.546-36.498-.755-47.788 1.595-4.752 65.1-144.234 141.122-309.96 125.354-273.267 138.303-302.527 139.087-314.28.708-10.623-.033-14.504-4.109-21.524-9.332-16.067-33.399-25.756-50.808-20.453" fill-rule="evenodd"/></svg>