<?xml version="1.0" encoding="UTF-8"?>
<svg id="Layer_1" xmlns="http://www.w3.org/2000/svg" version="1.1" viewBox="0 0 1296 1296">
  <!-- Generator: Adobe Illustrator 29.1.0, SVG Export Plug-In . SVG Version: 2.1.0 Build 142)  -->
  <defs>
    <style>
      .st0 {
        fill: #231f20;
        stroke: #010101;
        stroke-linecap: round;
        stroke-linejoin: bevel;
        stroke-width: .92px;
      }
    </style>
  </defs>
  <polyline class="st0" points="168.71 1112.55 166.74 1112.46 164.79 1112.22 162.86 1111.81 160.97 1111.25 159.14 1110.53 157.37 1109.66 155.68 1108.65 154.07 1107.5 152.57 1106.22 151.18 1104.83 149.91 1103.32 148.77 1101.71 147.76 1100.01 146.9 1098.24 146.19 1096.4 145.63 1094.51 145.23 1092.57 144.99 1090.61 144.91 1088.64 145 1086.67 145.25 1084.71 145.66 1082.78 146.23 1080.89 223.09 858.99 224.19 855.57 225.13 852.1 225.91 848.6 226.54 845.06 227.01 841.5 227.32 837.92 227.46 834.33 227.44 830.74 227.26 827.15 226.92 823.58 226.42 820.02 225.75 816.49 224.93 813 223.95 809.54 222.82 806.13 221.53 802.78 220.1 799.49 218.52 796.27 216.79 793.12 214.92 790.05 212.92 787.07 210.79 784.19 208.52 781.4 206.14 778.72 203.63 776.15 201.01 773.7 198.28 771.37 195.46 769.16 192.53 767.08 189.52 765.14 186.41 763.34 183.24 761.67 179.98 760.16 176.67 758.79 173.29 757.58 169.87 756.51 166.4 755.61 42.61 726.29 40.49 725.71 38.42 724.98 36.4 724.11 34.45 723.11 32.57 721.97 30.77 720.71 29.07 719.32 27.46 717.82 25.97 716.21 24.58 714.5 23.32 712.7 22.19 710.81 21.19 708.86 20.32 706.84 19.6 704.76 19.02 702.64 18.6 700.48 18.32 698.3 18.19 696.1 18.22 693.9 18.39 691.71 18.72 689.53 21.9 672.44 22.39 670.23 23.04 668.06 23.85 665.94 24.8 663.88 25.89 661.89 27.13 659.99 28.5 658.18 29.99 656.47 31.6 654.88 33.32 653.4 35.14 652.05 37.06 650.84 39.05 649.76 41.12 648.83 43.24 648.05 45.42 647.42 47.64 646.96 49.88 646.64 52.14 646.49 54.41 646.51 56.66 646.68 58.9 647.02 766.38 779.07 769.93 779.65 773.49 780.07 777.07 780.33 780.66 780.42 784.24 780.35 787.83 780.12 791.39 779.72 794.94 779.17 798.46 778.45 801.94 777.58 805.38 776.55 808.77 775.36 812.1 774.02 815.37 772.53 818.56 770.9 821.68 769.12 824.72 767.21 827.67 765.15 830.52 762.97 833.27 760.66 835.91 758.22 838.44 755.67 840.85 753.01 843.14 750.24 845.3 747.37 847.33 744.41 849.22 741.35 1204.1 139.2 1205.43 137.09 1206.9 135.07 1208.48 133.15 1210.18 131.33 1212.01 129.62 1213.92 128.02 1215.93 126.55 1218.04 125.22 1220.22 124.01 1222.49 122.95 1224.8 122.03 1227.17 121.25 1229.58 120.63 1232.02 120.16 1234.49 119.85 1236.98 119.69 1239.47 119.69 1241.96 119.84 1244.43 120.15 1246.87 120.62 1249.29 121.23 1251.68 122.01 1253.99 122.92 1256.23 123.98 1258.41 125.18 1261.77 127.16 1263.91 128.52 1265.97 130.01 1267.9 131.63 1269.75 133.37 1271.46 135.23 1273.08 137.19 1274.56 139.25 1275.88 141.4 1277.1 143.63 1278.14 145.93 1279.06 148.3 1279.82 150.71 1280.41 153.18 1280.86 155.67 1281.14 158.19 1281.27 160.73 1281.22 163.26 1281.02 165.79 1280.66 168.3 1280.15 170.78 1279.47 173.22 1278.63 175.62 1277.66 177.95 1003.43 776.35 1002.02 779.62 1000.76 782.95 999.65 786.33 998.69 789.76 997.88 793.22 997.23 796.72 996.74 800.24 996.41 803.79 996.23 807.34 996.21 810.9 996.35 814.46 996.66 818 997.11 821.53 997.73 825.04 998.5 828.51 999.43 831.95 1000.51 835.34 1001.74 838.68 1003.12 841.96 1004.64 845.17 1006.31 848.32 1008.11 851.38 1147.26 1076.14 1148.21 1077.84 1149.03 1079.61 1149.7 1081.44 1150.21 1083.32 1150.57 1085.23 1150.78 1087.17 1150.83 1089.12 1150.71 1091.06 1150.44 1092.99 1150.01 1094.89 1149.43 1096.75 1148.7 1098.56 1147.83 1100.3 1146.81 1101.96 1145.66 1103.53 1144.39 1105.01 1143 1106.38 1141.51 1107.62 1139.92 1108.75 1138.24 1109.73 1136.49 1110.58 1134.68 1111.28 1132.81 1111.83 1130.9 1112.23 1128.97 1112.47 1127.03 1112.55 1097.93 1112.55 1096.15 1112.46 1094.38 1112.22 1092.64 1111.82 1090.94 1111.27 1089.3 1110.57 1087.73 1109.72 1086.24 1108.73 1084.85 1107.61 879.19 926.84 877.94 925.83 876.61 924.92 875.2 924.12 873.74 923.44 872.23 922.88 870.68 922.44 463.34 825.95 460.34 825.32 457.31 824.85 454.26 824.53 451.2 824.37 448.14 824.37 445.07 824.53 442.02 824.84 438.99 825.32 435.99 825.95 433.03 826.73 430.11 827.66 427.24 828.74 424.43 829.97 421.69 831.35 419.02 832.86 416.43 834.51 413.93 836.29 411.53 838.2 409.23 840.22 407.03 842.37 404.95 844.62 402.99 846.98 401.15 849.44 221.71 1102.51 220.55 1104.01 219.28 1105.41 217.91 1106.71 216.43 1107.89 214.87 1108.95 213.22 1109.89 211.51 1110.69 209.74 1111.35 207.92 1111.87 206.07 1112.24 204.19 1112.47 202.3 1112.55" vector-effect="none"/>
</svg>