<svg version="1.1" xmlns="http://www.w3.org/2000/svg" viewBox="-18.875070547981668 -10.064518475331147 37.74435695415 29.52944989075619" fill="none" stroke="black" stroke-width="0.6%" vector-effect="non-scaling-stroke">
    <path d="M 17.08285 -7.58441 C 17.03 -7.6 16.94 -7.58 16.93818 -7.56919 L 16.33585 -7.33046 L 15.73353 -7.09174 C 15.82 -7.12 15.73 -7.1 15.6797 -7.06265 C 15.62 -7.02 14.45 -5.07 15.20424 -6.31087" />
    <path d="M 16.48052 -7.34568 C 16.43 -7.36 16.34 -7.34 16.33585 -7.33046" />
    <path d="M 17.80118 -6.65695 C 17.67 -7.07 17.33 -7.51 17.08285 -7.58441 L 16.48052 -7.34568 L 15.8782 -7.10696 C 15.82 -7.12 15.73 -7.1 15.73353 -7.09174" />
    <path d="M 17.19886 -6.41822 C 17.07 -6.84 16.73 -7.27 16.48052 -7.34568" />
    <path d="M 17.85928 -6.18338 C 17.87 -6.39 17.86 -6.47 17.80118 -6.65695 L 17.19886 -6.41822 L 16.59654 -6.1795 C 16.46 -6.6 16.12 -7.04 15.8782 -7.10696" />
    <path d="M 15.89283 -1.29517 C 17.67 -5.5 17.85 -5.96 17.85928 -6.18338 L 17.25695 -5.94465 C 17.27 -6.15 17.26 -6.24 17.19886 -6.41822" />
    <path d="M 13.89761 3.48567 C 13.92 3.41 14.82 1.26 15.89283 -1.29517 L 15.29051 -1.05645 C 17.06 -5.26 17.25 -5.72 17.25695 -5.94465 L 16.65463 -5.70593 C 16.66 -5.91 16.65 -6 16.59654 -6.1795" />
    <path d="M 10.78361 1.07167 C 10.74 1.06 9.92 0.27 7.72088 -1.89728" />
    <path d="M 6.67197 -2.92921 C 10.74 1.06 9.92 0.27 5.60867 -3.97622 C 2.49 -7.04 0.48 -9.01 0.42219 -9.03672 C 0.31 -9.09 0.17 -9.04 0.22885 -9.04032 L -0.37348 -8.80159 L -0.9758 -8.56287 C -0.9 -8.61 -1.04 -8.56 -1.09016 -8.45942 C -1.17 -8.3 -1.21 -7.87 -1.186 -7.87072" />
    <path d="M 13.90829 4.45192 C 13.85 4.18 13.84 3.67 13.89761 3.48567 L 13.29529 3.72439 C 13.32 3.65 14.22 1.49 15.29051 -1.05645 L 14.68818 -0.81772 C 16.46 -5.02 16.64 -5.48 16.65463 -5.70593" />
    <path d="M 14.95334 7.672 C 14.4 6.02 13.93 4.57 13.90829 4.45192 L 13.30596 4.69064 C 13.25 4.42 13.24 3.91 13.29529 3.72439 L 12.69297 3.96312 C 12.72 3.88 13.61 1.73 14.68818 -0.81772" />
    <path d="M 15.9984 10.85138 C 15.97 10.76 15.5 9.33 14.95334 7.672 L 14.35102 7.91072 C 13.8 6.26 13.33 4.81 13.30596 4.69064 L 12.70364 4.92937 C 12.65 4.66 12.64 4.15 12.69297 3.96312" />
    <path d="M 15.91117 11.34518 C 16.03 11.29 16.06 11.09 15.9984 10.85138 L 15.39608 11.0901 C 15.37 11 14.9 9.57 14.35102 7.91072 L 13.7487 8.14945 C 13.2 6.5 12.73 5.05 12.70364 4.92937" />
    <path d="M 15.89122 11.35396 C 15.8 11.37 15.82 11.39 15.91117 11.34518 L 15.30884 11.5839 C 15.43 11.53 15.46 11.33 15.39608 11.0901 L 14.79375 11.32882 C 14.77 11.23 14.3 9.8 13.7487 8.14945" />
    <path d="M 4.2193 0.20802 C 4.93 -0.71 5.55 -1.47 5.005 -0.78596" />
    <path d="M 2.83987 1.92564 C 2.89 1.9 3.51 1.12 4.2193 0.20802 L 3.61697 0.44674 C 4.33 -0.47 4.95 -1.23 4.44421 -0.59861" />
    <path d="M 2.80071 1.94707 C 2.74 1.98 2.75 1.98 2.83987 1.92564 L 2.23755 2.16437 C 2.29 2.13 2.91 1.36 3.61697 0.44674 L 3.01465 0.68546 C 3.72 -0.23 4.35 -0.99 3.84189 -0.35989" />
    <path d="M 14.05973 -4.40961 C 15.62 -7.02 14.45 -5.07 13.06082 -2.72732 C 11.61 -0.27 10.49 1.58 10.4096 1.6509 C 10.24 1.8 9.96 1.8 10.28345 1.72769 C 10.24 1.8 9.96 1.8 9.69558 1.64092 C 9.53 1.54 8.71 0.75 6.51624 -1.41983" />
    <path d="M 10.51596 1.49814 C 10.84 1.56 10.56 1.56 10.2979 1.4022 C 10.14 1.3 9.32 0.51 7.11856 -1.65856" />
    <path d="M 6.06964 -2.69048 C 10.14 1.3 9.32 0.51 5.00635 -3.7375 C 1.89 -6.81 -0.13 -8.77 -0.18013 -8.798 C -0.3 -8.85 -0.44 -8.8 -0.37348 -8.80159" />
    <path d="M 15.2889 11.59268 C 15.19 11.61 15.22 11.62 15.30884 11.5839 L 14.70652 11.82263 C 14.82 11.77 14.86 11.57 14.79375 11.32882" />
    <path d="M 1.7448 -3.00968 L 1.74332 -2.6208 L 1.18556 -0.75473" />
    <path d="M 2.19838 2.1858 C 2.14 2.21 2.15 2.22 2.23755 2.16437 L 1.63522 2.40309 C 1.68 2.37 2.3 1.6 3.01465 0.68546" />
    <path d="M 0.72235 1.74242 L 0.80873 1.92717 L 1.17777 2.19287 C 1.54 2.45 1.55 2.46 1.59606 2.42452 C 1.54 2.45 1.55 2.46 1.63522 2.40309" />
    <path d="M 2.97623 -3.94229 A 0.2475 0.12467 248.37967 0 1 3.0298 -4.02822 A 0.2475 0.12467 248.37967 1 1 3.21219 -3.56805 A 0.2475 0.12467 248.37967 0 1 2.97623 -3.94229 Z" />
    <path d="M 4.14603 -2.77743 A 0.2475 0.12467 248.37967 0 1 4.1996 -2.86336 A 0.2475 0.12467 248.37967 1 1 4.38199 -2.40319 A 0.2475 0.12467 248.37967 0 1 4.14603 -2.77743 Z" />
    <path d="M 3.56113 -3.35986 A 0.2475 0.12467 248.37967 0 1 3.6147 -3.44579 A 0.2475 0.12467 248.37967 1 1 3.79709 -2.98562 A 0.2475 0.12467 248.37967 0 1 3.56113 -3.35986 Z" />
    <path d="M 0.63663 -6.27201 A 0.2475 0.12467 248.37967 0 1 0.6902 -6.35794 A 0.2475 0.12467 248.37967 1 1 0.87258 -5.89777 A 0.2475 0.12467 248.37967 0 1 0.63663 -6.27201 Z" />
    <path d="M 1.22153 -5.68958 A 0.2475 0.12467 248.37967 0 1 1.2751 -5.77551 A 0.2475 0.12467 248.37967 1 1 1.45748 -5.31534 A 0.2475 0.12467 248.37967 0 1 1.22153 -5.68958 Z" />
    <path d="M 1.80643 -5.10715 A 0.2475 0.12467 248.37967 0 1 1.86 -5.19308 A 0.2475 0.12467 248.37967 1 1 2.04238 -4.73291 A 0.2475 0.12467 248.37967 0 1 1.80643 -5.10715 Z" />
    <path d="M 2.39133 -4.52472 A 0.2475 0.12467 248.37967 0 1 2.4449 -4.61065 A 0.2475 0.12467 248.37967 1 1 2.62729 -4.15048 A 0.2475 0.12467 248.37967 0 1 2.39133 -4.52472 Z" />
    <path d="M 5.90073 -1.03014 A 0.2475 0.12467 248.37967 0 1 5.9543 -1.11607 A 0.2475 0.12467 248.37967 1 1 6.13669 -0.6559 A 0.2475 0.12467 248.37967 0 1 5.90073 -1.03014 Z" />
    <path d="M 4.73093 -2.195 A 0.2475 0.12467 248.37967 0 1 4.7845 -2.28093 A 0.2475 0.12467 248.37967 0 1 4.90915 -2.23053" />
    <path d="M 4.72823 -2.15883 A 0.2475 0.12467 248.37967 0 1 4.73093 -2.195" />
    <path d="M 6.48563 -0.44771 A 0.2475 0.12467 248.37967 0 1 6.53921 -0.53364 A 0.2475 0.12467 248.37967 1 1 6.72159 -0.07347 A 0.2475 0.12467 248.37967 0 1 6.48563 -0.44771 Z" />
    <path d="M 7.07054 0.13472 A 0.2475 0.12467 248.37967 0 1 7.12411 0.04879 A 0.2475 0.12467 248.37967 1 1 7.30649 0.50896 A 0.2475 0.12467 248.37967 0 1 7.07054 0.13472 Z" />
    <path d="M 12.12428 1.10746 A 0.2475 0.12467 248.37967 0 1 12.10459 0.74585 A 0.2475 0.12467 248.37967 0 1 12.28697 1.20603 A 0.2475 0.12467 248.37967 0 1 12.12428 1.10746 Z" />
    <path d="M 12.41316 0.57607 A 0.2475 0.12467 248.37967 0 1 12.39346 0.21447 A 0.2475 0.12467 248.37967 0 1 12.57584 0.67464 A 0.2475 0.12467 248.37967 0 1 12.41316 0.57607 Z" />
    <path d="M 12.70203 0.04469 A 0.2475 0.12467 248.37967 0 1 12.68233 -0.31691 A 0.2475 0.12467 248.37967 0 1 12.86472 0.14326 A 0.2475 0.12467 248.37967 0 1 12.70203 0.04469 Z" />
    <path d="M 12.9909 -0.48669 A 0.2475 0.12467 248.37967 0 1 12.97121 -0.8483 A 0.2475 0.12467 248.37967 0 1 13.15359 -0.38812 A 0.2475 0.12467 248.37967 0 1 12.9909 -0.48669 Z" />
    <path d="M 13.27977 -1.01807 A 0.2475 0.12467 248.37967 0 1 13.26008 -1.37968 A 0.2475 0.12467 248.37967 0 1 13.44246 -0.9195 A 0.2475 0.12467 248.37967 0 1 13.27977 -1.01807 Z" />
    <path d="M 13.56865 -1.54946 A 0.2475 0.12467 248.37967 0 1 13.54895 -1.91106 A 0.2475 0.12467 248.37967 0 1 13.73134 -1.45089 A 0.2475 0.12467 248.37967 0 1 13.56865 -1.54946 Z" />
    <path d="M 13.85752 -2.08084 A 0.2475 0.12467 248.37967 0 1 13.83782 -2.44244 A 0.2475 0.12467 248.37967 0 1 14.02021 -1.98227 A 0.2475 0.12467 248.37967 0 1 13.85752 -2.08084 Z" />
    <path d="M 14.14639 -2.61222 A 0.2475 0.12467 248.37967 0 1 14.1267 -2.97383 A 0.2475 0.12467 248.37967 0 1 14.30908 -2.51365 A 0.2475 0.12467 248.37967 0 1 14.14639 -2.61222 Z" />
    <path d="M 14.43527 -3.1436 A 0.2475 0.12467 248.37967 0 1 14.41557 -3.50521 A 0.2475 0.12467 248.37967 0 1 14.59795 -3.04503 A 0.2475 0.12467 248.37967 0 1 14.43527 -3.1436 Z" />
    <path d="M 14.72414 -3.67499 A 0.2475 0.12467 248.37967 0 1 14.70444 -4.03659 A 0.2475 0.12467 248.37967 0 1 14.88683 -3.57642 A 0.2475 0.12467 248.37967 0 1 14.72414 -3.67499 Z" />
    <path d="M 15.01301 -4.20637 A 0.2475 0.12467 248.37967 0 1 14.99332 -4.56797 A 0.2475 0.12467 248.37967 0 1 15.1757 -4.1078 A 0.2475 0.12467 248.37967 0 1 15.01301 -4.20637 Z" />
    <path d="M 15.30188 -4.73775 A 0.2475 0.12467 248.37967 0 1 15.23967 -4.87727" />
    <path d="M 15.4653 -4.96669 A 0.2475 0.12467 248.37967 0 1 15.46457 -4.63918 A 0.2475 0.12467 248.37967 0 1 15.30188 -4.73775" />
    <path d="M 5.46732 -2.45176 C 9.53 1.54 8.71 0.75 4.40403 -3.49877 C 1.29 -6.57 -0.73 -8.54 -0.78246 -8.55927 C -0.9 -8.61 -1.04 -8.56 -0.9758 -8.56287" />
    <path d="M -0.42756 -6.55874 C -0.91 -7.06 -0.46 -6.6 0.06847 -6.03542 C 0.73 -5.34 1.09 -4.94 1.18721 -4.78885 C 1.38 -4.5 1.56 -4.09 1.66503 -3.70294 C 1.73 -3.44 1.75 -3.34 1.7448 -3.00968" />
    <path d="M 4.98014 -0.81102 C 5.02 -0.8 10.77 5.24 8.43456 2.79584" />
    <path d="M 9.43246 3.84799 C 5.02 -0.8 10.77 5.24 10.90785 5.42479 C 10.94 5.47 11.62 6.78 11.23509 6.04605" />
    <path d="M 11.94094 7.42229 C 10.94 5.47 11.62 6.78 12.40776 8.33913 C 13.2 9.9 13.88 11.23 13.91858 11.29471 C 13.97 11.39 14.06 11.47 14.30208 11.64236 C 14.59 11.85 14.62 11.86 14.68658 11.83141 C 14.59 11.85 14.62 11.86 14.70652 11.82263" />
    <path d="M -0.49929 -8.14289 L -0.06763 -7.668 L -15.37113 -1.60263" />
    <path d="M -0.06763 -7.668 L -0.29896 -6.60971" />
    <path d="M 11.93946 5.76688 L 12.30552 5.66679 L -2.59659 11.57307" />
    <path d="M 12.30552 5.66679 L 12.81817 7.07461" />
    <path d="M 11.49087 1.58451 L 11.89589 2.14407 L -1.70715 7.53548" />
    <path d="M 11.89589 2.14407 L 11.51816 3.02135" />
    <path d="M 15.95973 -6.61031 L 16.36475 -6.05075 L 1.1471 -0.01941" />
    <path d="M 16.36475 -6.05075 L 15.98702 -5.17347" />
    <path d="M -0.49929 -8.14289 L -15.84497 -2.0608" />
    <path d="M -14.66579 -0.91559 L -0.29896 -6.60971" />
    <path d="M -13.89817 -1.86261 A 0.2475 0.12808 137.73026 0 1 -13.75319 -1.85447 A 0.2475 0.12808 137.73026 1 1 -14.11948 -1.52152 A 0.2475 0.12808 137.73026 0 1 -13.89817 -1.86261 Z" />
    <path d="M -12.69352 -2.34006 A 0.2475 0.12808 137.73026 0 1 -12.54854 -2.33192 A 0.2475 0.12808 137.73026 1 1 -12.91484 -1.99897 A 0.2475 0.12808 137.73026 0 1 -12.69352 -2.34006 Z" />
    <path d="M -11.48888 -2.81751 A 0.2475 0.12808 137.73026 0 1 -11.3439 -2.80936 A 0.2475 0.12808 137.73026 1 1 -11.71019 -2.47642 A 0.2475 0.12808 137.73026 0 1 -11.48888 -2.81751 Z" />
    <path d="M -10.28423 -3.29495 A 0.2475 0.12808 137.73026 0 1 -10.13925 -3.28681 A 0.2475 0.12808 137.73026 1 1 -10.50554 -2.95386 A 0.2475 0.12808 137.73026 0 1 -10.28423 -3.29495 Z" />
    <path d="M -9.07958 -3.7724 A 0.2475 0.12808 137.73026 0 1 -8.93461 -3.76426 A 0.2475 0.12808 137.73026 1 1 -9.3009 -3.43131 A 0.2475 0.12808 137.73026 0 1 -9.07958 -3.7724 Z" />
    <path d="M -7.87494 -4.24985 A 0.2475 0.12808 137.73026 0 1 -7.72996 -4.24171 A 0.2475 0.12808 137.73026 1 1 -8.09625 -3.90876 A 0.2475 0.12808 137.73026 0 1 -7.87494 -4.24985 Z" />
    <path d="M -6.67029 -4.7273 A 0.2475 0.12808 137.73026 0 1 -6.52531 -4.71915 A 0.2475 0.12808 137.73026 1 1 -6.89161 -4.38621 A 0.2475 0.12808 137.73026 0 1 -6.67029 -4.7273 Z" />
    <path d="M -5.46565 -5.20474 A 0.2475 0.12808 137.73026 0 1 -5.32067 -5.1966 A 0.2475 0.12808 137.73026 1 1 -5.68696 -4.86365 A 0.2475 0.12808 137.73026 0 1 -5.46565 -5.20474 Z" />
    <path d="M -4.261 -5.68219 A 0.2475 0.12808 137.73026 0 1 -4.11602 -5.67405 A 0.2475 0.12808 137.73026 1 1 -4.48232 -5.3411 A 0.2475 0.12808 137.73026 0 1 -4.261 -5.68219 Z" />
    <path d="M -3.05636 -6.15964 A 0.2475 0.12808 137.73026 0 1 -2.91138 -6.1515 A 0.2475 0.12808 137.73026 1 1 -3.27767 -5.81855 A 0.2475 0.12808 137.73026 0 1 -3.05636 -6.15964 Z" />
    <path d="M -1.85171 -6.63709 A 0.2475 0.12808 137.73026 0 1 -1.70673 -6.62894 A 0.2475 0.12808 137.73026 1 1 -2.07303 -6.296 A 0.2475 0.12808 137.73026 0 1 -1.85171 -6.63709 Z" />
    <path d="M 11.93946 5.76688 L -2.60935 11.53313" />
    <path d="M -2.13253 13.00015 L 12.81817 7.07461" />
    <path d="M 11.49087 1.58451 L -1.34465 6.67172" />
    <path d="M -2.07222 8.40774 L 11.51816 3.02135" />
    <path d="M -1.85209 7.88145 A 0.2475 0.09641 144.10253 0 1 -1.84552 7.88845 A 0.2475 0.09641 144.10253 0 1 -1.92663 8.05953" />
    <path d="M -0.77905 7.41137 A 0.2475 0.09641 144.10253 0 1 -0.64088 7.411 A 0.2475 0.09641 144.10253 0 1 -1.04186 7.70124 A 0.2475 0.09641 144.10253 0 1 -0.77905 7.41137 Z" />
    <path d="M 0.4256 6.93392 A 0.2475 0.09641 144.10253 0 1 0.56377 6.93355 A 0.2475 0.09641 144.10253 0 1 0.16278 7.22379 A 0.2475 0.09641 144.10253 0 1 0.4256 6.93392 Z" />
    <path d="M 1.63025 6.45647 A 0.2475 0.09641 144.10253 0 1 1.76841 6.45611 A 0.2475 0.09641 144.10253 0 1 1.36743 6.74634 A 0.2475 0.09641 144.10253 0 1 1.63025 6.45647 Z" />
    <path d="M 2.83489 5.97903 A 0.2475 0.09641 144.10253 0 1 2.97306 5.97866 A 0.2475 0.09641 144.10253 0 1 2.57208 6.2689 A 0.2475 0.09641 144.10253 0 1 2.83489 5.97903 Z" />
    <path d="M 4.03954 5.50158 A 0.2475 0.09641 144.10253 0 1 4.1777 5.50121 A 0.2475 0.09641 144.10253 0 1 3.77672 5.79145 A 0.2475 0.09641 144.10253 0 1 4.03954 5.50158 Z" />
    <path d="M 5.24418 5.02413 A 0.2475 0.09641 144.10253 0 1 5.38235 5.02376 A 0.2475 0.09641 144.10253 0 1 4.98137 5.314 A 0.2475 0.09641 144.10253 0 1 5.24418 5.02413 Z" />
    <path d="M 6.44883 4.54668 A 0.2475 0.09641 144.10253 0 1 6.587 4.54632 A 0.2475 0.09641 144.10253 0 1 6.18601 4.83655 A 0.2475 0.09641 144.10253 0 1 6.44883 4.54668 Z" />
    <path d="M 7.65347 4.06924 A 0.2475 0.09641 144.10253 0 1 7.79164 4.06887 A 0.2475 0.09641 144.10253 0 1 7.39066 4.35911 A 0.2475 0.09641 144.10253 0 1 7.65347 4.06924 Z" />
    <path d="M 8.85812 3.59179 A 0.2475 0.09641 144.10253 0 1 8.99629 3.59142 A 0.2475 0.09641 144.10253 0 1 8.5953 3.88166 A 0.2475 0.09641 144.10253 0 1 8.85812 3.59179 Z" />
    <path d="M 10.06277 3.11434 A 0.2475 0.09641 144.10253 0 1 10.20093 3.11397 A 0.2475 0.09641 144.10253 0 1 9.79995 3.40421 A 0.2475 0.09641 144.10253 0 1 10.06277 3.11434 Z" />
    <path d="M 15.95973 -6.61031 L 0.84149 -0.61837" />
    <path d="M 1.12295 0.71774 L 15.98702 -5.17347" />
    <path d="M 2.48517 -0.306 A 0.2475 0.09641 144.10253 0 1 2.62334 -0.30637 A 0.2475 0.09641 144.10253 0 1 2.22235 -0.01613 A 0.2475 0.09641 144.10253 0 1 2.48517 -0.306 Z" />
    <path d="M 3.68982 -0.78345 A 0.2475 0.09641 144.10253 0 1 3.82798 -0.78381 A 0.2475 0.09641 144.10253 0 1 3.427 -0.49358 A 0.2475 0.09641 144.10253 0 1 3.68982 -0.78345 Z" />
    <path d="M 4.89446 -1.26089 A 0.2475 0.09641 144.10253 0 1 5.03263 -1.26126 A 0.2475 0.09641 144.10253 0 1 4.63165 -0.97103 A 0.2475 0.09641 144.10253 0 1 4.89446 -1.26089 Z" />
    <path d="M 6.09911 -1.73834 A 0.2475 0.09641 144.10253 0 1 6.23727 -1.73871 A 0.2475 0.09641 144.10253 0 1 5.83629 -1.44847 A 0.2475 0.09641 144.10253 0 1 6.09911 -1.73834 Z" />
    <path d="M 7.30375 -2.21579 A 0.2475 0.09641 144.10253 0 1 7.44192 -2.21616 A 0.2475 0.09641 144.10253 0 1 7.04094 -1.92592 A 0.2475 0.09641 144.10253 0 1 7.30375 -2.21579 Z" />
    <path d="M 8.5084 -2.69324 A 0.2475 0.09641 144.10253 0 1 8.64657 -2.6936 A 0.2475 0.09641 144.10253 0 1 8.24558 -2.40337 A 0.2475 0.09641 144.10253 0 1 8.5084 -2.69324 Z" />
    <path d="M 9.71304 -3.17068 A 0.2475 0.09641 144.10253 0 1 9.85121 -3.17105 A 0.2475 0.09641 144.10253 0 1 9.45023 -2.88082 A 0.2475 0.09641 144.10253 0 1 9.71304 -3.17068 Z" />
    <path d="M 10.91769 -3.64813 A 0.2475 0.09641 144.10253 0 1 11.05586 -3.6485 A 0.2475 0.09641 144.10253 0 1 10.65487 -3.35826 A 0.2475 0.09641 144.10253 0 1 10.91769 -3.64813 Z" />
    <path d="M 12.12234 -4.12558 A 0.2475 0.09641 144.10253 0 1 12.2605 -4.12595 A 0.2475 0.09641 144.10253 0 1 11.85952 -3.83571 A 0.2475 0.09641 144.10253 0 1 12.12234 -4.12558 Z" />
    <path d="M 13.32698 -4.60303 A 0.2475 0.09641 144.10253 0 1 13.46515 -4.60339 A 0.2475 0.09641 144.10253 0 1 13.06417 -4.31316 A 0.2475 0.09641 144.10253 0 1 13.32698 -4.60303 Z" />
    <path d="M 14.53163 -5.08047 A 0.2475 0.09641 144.10253 0 1 14.66979 -5.08084 A 0.2475 0.09641 144.10253 0 1 14.26881 -4.79061 A 0.2475 0.09641 144.10253 0 1 14.53163 -5.08047 Z" />
    <path d="M 0.41858 -0.97972 C 0.36 -1 0.27 -0.98 0.27391 -0.9645 L -0.32841 -0.72577 L -0.93073 -0.48705 C -0.84 -0.52 -0.93 -0.5 -0.98457 -0.45796 C -1.04 -0.42 -2.22 1.53 -3.60345 3.87737 C -5.05 6.33 -6.18 8.19 -6.25467 8.25559 C -6.43 8.41 -6.71 8.4 -6.38081 8.33238 C -6.43 8.41 -6.71 8.4 -6.96869 8.24561 C -7.13 8.15 -7.95 7.35 -12.26024 3.10592 C -15.37 0.04 -17.39 -1.93 -17.44672 -1.95458 C -17.56 -2.01 -17.7 -1.96 -17.64006 -1.95818 C -17.56 -2.01 -17.7 -1.96 -17.75443 -1.85473 C -17.83 -1.7 -17.88 -1.26 -17.83564 -1.06606 C -17.81 -0.92 -17.62 -0.5 -17.57671 -0.46288 C -17.57 -0.46 -17.13 0.01 -16.5958 0.56927 C -15.94 1.26 -15.58 1.66 -15.47705 1.81584 C -15.28 2.1 -15.1 2.52 -14.99924 2.90175 C -14.93 3.16 -14.92 3.26 -14.91947 3.59501 L -14.92094 3.98389 L -15.49207 5.89467 C -15.81 6.95 -16.06 7.87 -16.0632 7.94659 C -16.06 8.05 -16.03 8.15 -15.95937 8.30979 L -15.85554 8.53186 L -15.4865 8.79756 C -15.13 9.06 -15.12 9.06 -15.0682 9.02921 C -15.13 9.06 -15.12 9.06 -15.02904 9.00778 C -14.98 8.98 -14.36 8.2 -13.64962 7.29016 C -12.94 6.38 -12.32 5.61 -12.26225 5.59312 C -12.94 6.38 -12.32 5.61 -12.26196 5.59302 C -12.13 5.55 -11.93 5.59 -11.76858 5.712 C -11.65 5.8 -5.89 11.84 -5.75642 12.02948 C -5.72 12.07 -5.05 13.39 -4.25651 14.94382 C -3.47 16.5 -2.79 17.83 -2.74568 17.8994 C -2.69 17.99 -2.6 18.07 -2.36218 18.24705 C -2.07 18.46 -2.04 18.47 -1.97769 18.4361 C -2.07 18.46 -2.04 18.47 -1.95774 18.42732 C -1.84 18.37 -1.81 18.17 -1.87051 17.93352 C -1.9 17.84 -2.37 16.41 -2.91557 14.75414 C -3.46 13.1 -3.94 11.65 -3.96062 11.53406 C -4.02 11.27 -4.02 10.76 -3.9713 10.56781 C -3.95 10.49 -3.05 8.34 -1.97608 5.78697 C -0.2 1.58 -0.02 1.13 -0.00964 0.89876 C 0 0.69 -0.01 0.61 -0.06773 0.42519 C -0.2 0.01 -0.54 -0.43 -0.78607 -0.50227 C -0.84 -0.52 -0.93 -0.5 -0.93073 -0.48705" />
    <path d="M -5.88066 7.67636 C -5.93 7.67 -6.75 6.87 -11.05559 2.62847 L -11.65791 2.86719 C -14.77 -0.2 -16.79 -2.17 -16.8444 -2.19331 L -17.44672 -1.95458" />
    <path d="M -11.05559 2.62847 C -14.17 -0.44 -16.19 -2.41 -16.24208 -2.43203 L -16.8444 -2.19331 C -16.96 -2.24 -17.1 -2.2 -17.03774 -2.1969 L -17.64006 -1.95818" />
    <path d="M -16.24208 -2.43203 C -16.36 -2.48 -16.5 -2.44 -16.43542 -2.43563 L -17.03774 -2.1969" />
    <path d="M -13.86356 8.55176 C -13.92 8.58 -13.91 8.58 -13.8244 8.53034 L -14.42672 8.76906 C -14.38 8.74 -13.76 7.97 -13.04729 7.05143 L -13.64962 7.29016" />
    <path d="M -13.8244 8.53034 C -13.78 8.5 -13.16 7.73 -12.44497 6.81271 L -13.04729 7.05143 C -12.34 6.14 -11.71 5.37 -11.91122 5.63052" />
    <path d="M -12.44497 6.81271 C -11.73 5.9 -11.11 5.13 -11.65927 5.81873" />
    <path d="M -0.77304 17.95865 C -0.87 17.98 -0.84 17.99 -0.7531 17.94987 L -1.35542 18.18859 C -1.24 18.13 -1.2 17.93 -1.26819 17.69479 L -1.87051 17.93352" />
    <path d="M -0.7531 17.94987 C -0.64 17.89 -0.6 17.7 -0.66587 17.45607 L -1.26819 17.69479 C -1.29 17.6 -1.76 16.17 -2.31324 14.51541 L -2.91557 14.75414" />
    <path d="M -0.66587 17.45607 C -0.69 17.36 -1.16 15.93 -1.71092 14.27669 L -2.31324 14.51541 C -2.86 12.86 -3.33 11.41 -3.3583 11.29533 L -3.96062 11.53406" />
    <path d="M -1.71092 14.27669 C -2.26 12.62 -2.73 11.17 -2.75598 11.05661 L -3.3583 11.29533 C -3.42 11.03 -3.42 10.52 -3.36898 10.32908 L -3.9713 10.56781" />
    <path d="M -2.75598 11.05661 C -2.81 10.79 -2.82 10.28 -2.76665 10.09036 L -3.36898 10.32908 C -3.35 10.25 -2.45 8.1 -1.37376 5.54825 L -1.97608 5.78697" />
    <path d="M -2.76665 10.09036 C -2.74 10.01 -1.85 7.86 -0.77144 5.30952 L -1.37376 5.54825 C 0.4 1.34 0.58 0.89 0.59269 0.66004 L -0.00964 0.89876" />
    <path d="M -0.77144 5.30952 C 1 1.1 1.18 0.65 1.19501 0.42131 L 0.59269 0.66004 C 0.6 0.45 0.59 0.37 0.53459 0.18647 L -0.06773 0.42519" />
    <path d="M 1.19501 0.42131 C 1.21 0.22 1.19 0.13 1.13692 -0.05226 L 0.53459 0.18647 C 0.4 -0.23 0.06 -0.67 -0.18374 -0.74099 L -0.78607 -0.50227" />
    <path d="M 1.13692 -0.05226 C 1 -0.47 0.66 -0.91 0.41858 -0.97972 L -0.18374 -0.74099 C -0.24 -0.76 -0.33 -0.74 -0.32841 -0.72577" />
    <path d="M -6.14831 8.10283 C -5.83 8.17 -6.11 8.17 -6.36637 8.00689 L -6.96869 8.24561" />
    <path d="M -6.36637 8.00689 C -6.53 7.91 -7.35 7.11 -11.65791 2.86719 L -12.26024 3.10592" />
    <path d="M -1.37536 18.19738 C -1.47 18.22 -1.44 18.23 -1.35542 18.18859 L -1.95774 18.42732" />
    <path d="M -14.46588 8.79049 C -14.52 8.82 -14.51 8.82 -14.42672 8.76906 L -15.02904 9.00778" />
    <path d="M -12.51823 3.82727 A 0.2475 0.12467 248.37967 0 1 -12.46466 3.74133 A 0.2475 0.12467 248.37967 1 1 -12.28228 4.2015 A 0.2475 0.12467 248.37967 0 1 -12.51823 3.82727 Z" />
    <path d="M -11.93333 4.4097 A 0.2475 0.12467 248.37967 0 1 -11.87976 4.32376 A 0.2475 0.12467 248.37967 1 1 -11.69738 4.78393 A 0.2475 0.12467 248.37967 0 1 -11.93333 4.4097 Z" />
    <path d="M -11.34843 4.99213 A 0.2475 0.12467 248.37967 0 1 -11.29486 4.90619 A 0.2475 0.12467 248.37967 1 1 -11.11248 5.36636 A 0.2475 0.12467 248.37967 0 1 -11.34843 4.99213 Z" />
    <path d="M -10.76353 5.57456 A 0.2475 0.12467 248.37967 0 1 -10.70996 5.48862 A 0.2475 0.12467 248.37967 1 1 -10.52758 5.94879 A 0.2475 0.12467 248.37967 0 1 -10.76353 5.57456 Z" />
    <path d="M -10.17863 6.15699 A 0.2475 0.12467 248.37967 0 1 -10.12506 6.07105 A 0.2475 0.12467 248.37967 1 1 -9.94268 6.53122 A 0.2475 0.12467 248.37967 0 1 -10.17863 6.15699 Z" />
    <path d="M -9.59373 6.73942 A 0.2475 0.12467 248.37967 0 1 -9.54016 6.65348 A 0.2475 0.12467 248.37967 1 1 -9.35777 7.11366 A 0.2475 0.12467 248.37967 0 1 -9.59373 6.73942 Z" />
    <path d="M -16.02764 0.33269 A 0.2475 0.12467 248.37967 0 1 -15.97407 0.24675 A 0.2475 0.12467 248.37967 1 1 -15.79168 0.70692 A 0.2475 0.12467 248.37967 0 1 -16.02764 0.33269 Z" />
    <path d="M -15.44274 0.91512 A 0.2475 0.12467 248.37967 0 1 -15.38917 0.82918 A 0.2475 0.12467 248.37967 1 1 -15.20678 1.28935 A 0.2475 0.12467 248.37967 0 1 -15.44274 0.91512 Z" />
    <path d="M -14.85784 1.49755 A 0.2475 0.12467 248.37967 0 1 -14.80427 1.41161 A 0.2475 0.12467 248.37967 1 1 -14.62188 1.87178 A 0.2475 0.12467 248.37967 0 1 -14.85784 1.49755 Z" />
    <path d="M -14.27294 2.07998 A 0.2475 0.12467 248.37967 0 1 -14.21937 1.99404 A 0.2475 0.12467 248.37967 1 1 -14.03698 2.45421 A 0.2475 0.12467 248.37967 0 1 -14.27294 2.07998 Z" />
    <path d="M -13.68803 2.66241 A 0.2475 0.12467 248.37967 0 1 -13.63446 2.57647 A 0.2475 0.12467 248.37967 1 1 -13.45208 3.03664 A 0.2475 0.12467 248.37967 0 1 -13.68803 2.66241 Z" />
    <path d="M -13.10313 3.24484 A 0.2475 0.12467 248.37967 0 1 -13.04956 3.1589 A 0.2475 0.12467 248.37967 1 1 -12.86718 3.61907 A 0.2475 0.12467 248.37967 0 1 -13.10313 3.24484 Z" />
    <path d="M -4.53998 7.71215 A 0.2475 0.12467 248.37967 0 1 -4.55968 7.35054 A 0.2475 0.12467 248.37967 0 1 -4.37729 7.81072 A 0.2475 0.12467 248.37967 0 1 -4.53998 7.71215 Z" />
    <path d="M -4.25111 7.18076 A 0.2475 0.12467 248.37967 0 1 -4.27081 6.81916 A 0.2475 0.12467 248.37967 0 1 -4.08842 7.27933 A 0.2475 0.12467 248.37967 0 1 -4.25111 7.18076 Z" />
    <path d="M -3.96224 6.64938 A 0.2475 0.12467 248.37967 0 1 -3.98193 6.28778 A 0.2475 0.12467 248.37967 0 1 -3.79955 6.74795 A 0.2475 0.12467 248.37967 0 1 -3.96224 6.64938 Z" />
    <path d="M -3.67336 6.118 A 0.2475 0.12467 248.37967 0 1 -3.69306 5.7564 A 0.2475 0.12467 248.37967 0 1 -3.51068 6.21657 A 0.2475 0.12467 248.37967 0 1 -3.67336 6.118 Z" />
    <path d="M -3.38449 5.58662 A 0.2475 0.12467 248.37967 0 1 -3.40419 5.22501 A 0.2475 0.12467 248.37967 0 1 -3.2218 5.68519 A 0.2475 0.12467 248.37967 0 1 -3.38449 5.58662 Z" />
    <path d="M -3.09562 5.05523 A 0.2475 0.12467 248.37967 0 1 -3.11531 4.69363 A 0.2475 0.12467 248.37967 0 1 -2.93293 5.15381 A 0.2475 0.12467 248.37967 0 1 -3.09562 5.05523 Z" />
    <path d="M -2.80675 4.52385 A 0.2475 0.12467 248.37967 0 1 -2.82644 4.16225 A 0.2475 0.12467 248.37967 0 1 -2.64406 4.62242 A 0.2475 0.12467 248.37967 0 1 -2.80675 4.52385 Z" />
    <path d="M -2.51787 3.99247 A 0.2475 0.12467 248.37967 0 1 -2.53757 3.63087 A 0.2475 0.12467 248.37967 0 1 -2.35518 4.09104 A 0.2475 0.12467 248.37967 0 1 -2.51787 3.99247 Z" />
    <path d="M -2.229 3.46109 A 0.2475 0.12467 248.37967 0 1 -2.2487 3.09948 A 0.2475 0.12467 248.37967 0 1 -2.06631 3.55966 A 0.2475 0.12467 248.37967 0 1 -2.229 3.46109 Z" />
    <path d="M -1.94013 2.92971 A 0.2475 0.12467 248.37967 0 1 -1.95982 2.5681 A 0.2475 0.12467 248.37967 0 1 -1.77744 3.02828 A 0.2475 0.12467 248.37967 0 1 -1.94013 2.92971 Z" />
    <path d="M -1.65125 2.39832 A 0.2475 0.12467 248.37967 0 1 -1.67095 2.03672 A 0.2475 0.12467 248.37967 0 1 -1.48857 2.49689 A 0.2475 0.12467 248.37967 0 1 -1.65125 2.39832 Z" />
    <path d="M -1.36238 1.86694 A 0.2475 0.12467 248.37967 0 1 -1.38208 1.50534 A 0.2475 0.12467 248.37967 0 1 -1.19969 1.96551 A 0.2475 0.12467 248.37967 0 1 -1.36238 1.86694 Z" />
    <path d="M 10.67008 1.25469 L 10.2979 1.4022 L 9.69558 1.64092" />
    <path d="M 5.60867 -3.97622 L 5.00635 -3.7375 L 4.40403 -3.49877" />
    <path d="M 0.42219 -9.03672 L -0.18013 -8.798 L -0.78246 -8.55927" />
    <path d="M -5.99418 7.85938 L -6.36637 8.00689" />
    <path d="M 15.89122 11.35396 L 15.2889 11.59268 L 14.68658 11.83141" />
    <path d="M 2.80071 1.94707 L 2.19838 2.1858 L 1.59606 2.42452" />
    <path d="M -0.77304 17.95865 L -1.37536 18.19738 L -1.97769 18.4361" />
    <path d="M -13.86356 8.55176 L -14.46588 8.79049 L -15.0682 9.02921" />
</svg>