<svg version="1.1" xmlns="http://www.w3.org/2000/svg" viewBox="-18.87507164474902 -10.064519802511352 37.74435914610759 29.529452033773072" fill="none" stroke="black" stroke-width="0.6%" vector-effect="non-scaling-stroke">
    <path d="M 17.08285 -7.58441 C 17.03 -7.6 16.94 -7.58 16.93818 -7.56919 L 16.33586 -7.33046 L 15.73353 -7.09174 C 15.82 -7.12 15.73 -7.1 15.6797 -7.06265 C 15.62 -7.02 14.45 -5.07 15.20424 -6.31088" />
    <path d="M 16.48052 -7.34569 C 16.43 -7.36 16.34 -7.34 16.33586 -7.33046" />
    <path d="M 17.80118 -6.65695 C 17.67 -7.07 17.33 -7.51 17.08285 -7.58441 L 16.48052 -7.34569 L 15.8782 -7.10696 C 15.82 -7.12 15.73 -7.1 15.73353 -7.09174" />
    <path d="M 17.19886 -6.41822 C 17.07 -6.84 16.73 -7.27 16.48052 -7.34569" />
    <path d="M 17.85928 -6.18338 C 17.87 -6.39 17.86 -6.47 17.80118 -6.65695 L 17.19886 -6.41822 L 16.59654 -6.1795 C 16.46 -6.6 16.12 -7.04 15.8782 -7.10696" />
    <path d="M 15.89283 -1.29517 C 17.67 -5.5 17.85 -5.96 17.85928 -6.18338 L 17.25695 -5.94465 C 17.27 -6.15 17.26 -6.24 17.19886 -6.41822" />
    <path d="M 13.89761 3.48567 C 13.92 3.41 14.82 1.26 15.89283 -1.29517 L 15.29051 -1.05645 C 17.06 -5.26 17.25 -5.72 17.25695 -5.94465 L 16.65463 -5.70593 C 16.66 -5.91 16.65 -6 16.59654 -6.1795" />
    <path d="M 10.78361 1.07167 C 10.74 1.06 9.92 0.27 7.72088 -1.89728" />
    <path d="M 6.67197 -2.92921 C 10.74 1.06 9.92 0.27 5.60867 -3.97622 C 2.49 -7.04 0.48 -9.01 0.42218 -9.03672 C 0.31 -9.09 0.17 -9.04 0.22884 -9.04032 L -0.37348 -8.8016 L -0.9758 -8.56287 C -0.9 -8.61 -1.04 -8.56 -1.09017 -8.45942 C -1.17 -8.3 -1.21 -7.87 -1.18601 -7.87072" />
    <path d="M 13.90829 4.45192 C 13.85 4.18 13.84 3.67 13.89761 3.48567 L 13.29529 3.72439 C 13.32 3.65 14.22 1.49 15.29051 -1.05645 L 14.68819 -0.81772 C 16.46 -5.02 16.64 -5.48 16.65463 -5.70593" />
    <path d="M 14.95334 7.672 C 14.4 6.02 13.93 4.57 13.90829 4.45192 L 13.30597 4.69064 C 13.25 4.42 13.24 3.91 13.29529 3.72439 L 12.69297 3.96312 C 12.72 3.88 13.61 1.73 14.68819 -0.81772" />
    <path d="M 15.9984 10.85138 C 15.97 10.76 15.5 9.33 14.95334 7.672 L 14.35102 7.91072 C 13.8 6.26 13.33 4.81 13.30597 4.69064 L 12.70364 4.92937 C 12.65 4.66 12.64 4.15 12.69297 3.96312" />
    <path d="M 15.91117 11.34518 C 16.03 11.29 16.06 11.09 15.9984 10.85138 L 15.39608 11.0901 C 15.37 11 14.9 9.57 14.35102 7.91072 L 13.7487 8.14944 C 13.2 6.5 12.73 5.05 12.70364 4.92937" />
    <path d="M 15.89122 11.35396 C 15.8 11.37 15.82 11.39 15.91117 11.34518 L 15.30885 11.5839 C 15.43 11.53 15.46 11.33 15.39608 11.0901 L 14.79376 11.32882 C 14.77 11.23 14.3 9.8 13.7487 8.14944" />
    <path d="M 4.21929 0.20802 C 4.93 -0.71 5.55 -1.47 5.005 -0.78596" />
    <path d="M 2.83987 1.92564 C 2.89 1.9 3.51 1.12 4.21929 0.20802 L 3.61697 0.44674 C 4.33 -0.47 4.95 -1.23 4.4442 -0.5986" />
    <path d="M 2.8007 1.94707 C 2.74 1.98 2.75 1.98 2.83987 1.92564 L 2.23754 2.16437 C 2.29 2.13 2.91 1.36 3.61697 0.44674 L 3.01465 0.68546 C 3.72 -0.23 4.35 -0.99 3.84188 -0.35988" />
    <path d="M 14.05973 -4.40961 C 15.62 -7.02 14.45 -5.07 13.06082 -2.72732 C 11.61 -0.27 10.49 1.58 10.4096 1.6509 C 10.24 1.8 9.96 1.8 10.28345 1.72769 C 10.24 1.8 9.96 1.8 9.69558 1.64092 C 9.53 1.54 8.71 0.75 6.51624 -1.41983" />
    <path d="M 10.51595 1.49814 C 10.84 1.56 10.56 1.56 10.2979 1.4022 C 10.14 1.3 9.32 0.51 7.11856 -1.65856" />
    <path d="M 6.06965 -2.69048 C 10.14 1.3 9.32 0.51 5.00635 -3.7375 C 1.89 -6.81 -0.13 -8.77 -0.18014 -8.798 C -0.3 -8.85 -0.44 -8.8 -0.37348 -8.8016" />
    <path d="M 15.2889 11.59268 C 15.19 11.61 15.22 11.62 15.30885 11.5839 L 14.70652 11.82262 C 14.82 11.77 14.86 11.57 14.79376 11.32882" />
    <path d="M 1.74479 -3.00969 L 1.74332 -2.6208 L 1.18556 -0.75473" />
    <path d="M 2.19838 2.1858 C 2.14 2.21 2.15 2.22 2.23754 2.16437 L 1.63522 2.40309 C 1.68 2.37 2.3 1.6 3.01465 0.68546" />
    <path d="M 0.72235 1.74243 L 0.80873 1.92717 L 1.17776 2.19287 C 1.54 2.45 1.55 2.46 1.59606 2.42452 C 1.54 2.45 1.55 2.46 1.63522 2.40309" />
    <path d="M 2.97477 -3.94374 A 0.25 0.12593 248.37966 0 1 3.02888 -4.03055 A 0.25 0.12593 248.37966 0 1 3.2131 -3.56572 A 0.25 0.12593 248.37966 0 1 2.97477 -3.94374 Z" />
    <path d="M 4.14457 -2.77888 A 0.25 0.12593 248.37966 0 1 4.19868 -2.86569 A 0.25 0.12593 248.37966 0 1 4.38291 -2.40086 A 0.25 0.12593 248.37966 0 1 4.14457 -2.77888 Z" />
    <path d="M 3.55967 -3.36131 A 0.25 0.12593 248.37966 0 1 3.61378 -3.44812 A 0.25 0.12593 248.37966 0 1 3.79801 -2.98329 A 0.25 0.12593 248.37966 0 1 3.55967 -3.36131 Z" />
    <path d="M 0.63516 -6.27346 A 0.25 0.12593 248.37966 0 1 0.68927 -6.36027 A 0.25 0.12593 248.37966 0 1 0.8735 -5.89544 A 0.25 0.12593 248.37966 0 1 0.63516 -6.27346 Z" />
    <path d="M 1.22006 -5.69103 A 0.25 0.12593 248.37966 0 1 1.27417 -5.77784 A 0.25 0.12593 248.37966 0 1 1.4584 -5.31301 A 0.25 0.12593 248.37966 0 1 1.22006 -5.69103 Z" />
    <path d="M 1.80496 -5.1086 A 0.25 0.12593 248.37966 0 1 1.85908 -5.19541 A 0.25 0.12593 248.37966 0 1 2.0433 -4.73058 A 0.25 0.12593 248.37966 0 1 1.80496 -5.1086 Z" />
    <path d="M 2.38987 -4.52617 A 0.25 0.12593 248.37966 0 1 2.44398 -4.61298 A 0.25 0.12593 248.37966 0 1 2.6282 -4.14815 A 0.25 0.12593 248.37966 0 1 2.38987 -4.52617 Z" />
    <path d="M 5.89927 -1.03159 A 0.25 0.12593 248.37966 0 1 5.95338 -1.1184 A 0.25 0.12593 248.37966 0 1 6.13761 -0.65357 A 0.25 0.12593 248.37966 0 1 5.89927 -1.03159 Z" />
    <path d="M 4.72947 -2.19645 A 0.25 0.12593 248.37966 0 1 4.78358 -2.28326 A 0.25 0.12593 248.37966 0 1 4.91064 -2.23112" />
    <path d="M 4.72673 -2.15823 A 0.25 0.12593 248.37966 0 1 4.72947 -2.19645" />
    <path d="M 6.48417 -0.44916 A 0.25 0.12593 248.37966 0 1 6.53828 -0.53597 A 0.25 0.12593 248.37966 0 1 6.72251 -0.07114 A 0.25 0.12593 248.37966 0 1 6.48417 -0.44916 Z" />
    <path d="M 7.06907 0.13327 A 0.25 0.12593 248.37966 0 1 7.12318 0.04646 A 0.25 0.12593 248.37966 0 1 7.30741 0.51129 A 0.25 0.12593 248.37966 0 1 7.06907 0.13327 Z" />
    <path d="M 12.12356 1.10878 A 0.25 0.12593 248.37966 0 1 12.10367 0.74353 A 0.25 0.12593 248.37966 0 1 12.28789 1.20835 A 0.25 0.12593 248.37966 0 1 12.12356 1.10878 Z" />
    <path d="M 12.41243 0.5774 A 0.25 0.12593 248.37966 0 1 12.39254 0.21214 A 0.25 0.12593 248.37966 0 1 12.57677 0.67697 A 0.25 0.12593 248.37966 0 1 12.41243 0.5774 Z" />
    <path d="M 12.70131 0.04602 A 0.25 0.12593 248.37966 0 1 12.68141 -0.31924 A 0.25 0.12593 248.37966 0 1 12.86564 0.14558 A 0.25 0.12593 248.37966 0 1 12.70131 0.04602 Z" />
    <path d="M 12.99018 -0.48536 A 0.25 0.12593 248.37966 0 1 12.97028 -0.85062 A 0.25 0.12593 248.37966 0 1 13.15451 -0.3858 A 0.25 0.12593 248.37966 0 1 12.99018 -0.48536 Z" />
    <path d="M 13.27905 -1.01675 A 0.25 0.12593 248.37966 0 1 13.25916 -1.382 A 0.25 0.12593 248.37966 0 1 13.44338 -0.91718 A 0.25 0.12593 248.37966 0 1 13.27905 -1.01675 Z" />
    <path d="M 13.56793 -1.54813 A 0.25 0.12593 248.37966 0 1 13.54803 -1.91339 A 0.25 0.12593 248.37966 0 1 13.73226 -1.44856 A 0.25 0.12593 248.37966 0 1 13.56793 -1.54813 Z" />
    <path d="M 13.8568 -2.07951 A 0.25 0.12593 248.37966 0 1 13.8369 -2.44477 A 0.25 0.12593 248.37966 0 1 14.02113 -1.97995 A 0.25 0.12593 248.37966 0 1 13.8568 -2.07951 Z" />
    <path d="M 14.14567 -2.61089 A 0.25 0.12593 248.37966 0 1 14.12578 -2.97615 A 0.25 0.12593 248.37966 0 1 14.31 -2.51133 A 0.25 0.12593 248.37966 0 1 14.14567 -2.61089 Z" />
    <path d="M 14.43454 -3.14228 A 0.25 0.12593 248.37966 0 1 14.41465 -3.50753 A 0.25 0.12593 248.37966 0 1 14.59888 -3.04271 A 0.25 0.12593 248.37966 0 1 14.43454 -3.14228 Z" />
    <path d="M 14.72342 -3.67366 A 0.25 0.12593 248.37966 0 1 14.70352 -4.03892 A 0.25 0.12593 248.37966 0 1 14.88775 -3.57409 A 0.25 0.12593 248.37966 0 1 14.72342 -3.67366 Z" />
    <path d="M 15.01229 -4.20504 A 0.25 0.12593 248.37966 0 1 14.99239 -4.5703 A 0.25 0.12593 248.37966 0 1 15.17662 -4.10547 A 0.25 0.12593 248.37966 0 1 15.01229 -4.20504 Z" />
    <path d="M 15.30116 -4.73642 A 0.25 0.12593 248.37966 0 1 15.23847 -4.87679" />
    <path d="M 15.46651 -4.96717 A 0.25 0.12593 248.37966 0 1 15.4655 -4.63686 A 0.25 0.12593 248.37966 0 1 15.30116 -4.73642" />
    <path d="M 5.46732 -2.45176 C 9.53 1.54 8.71 0.75 4.40403 -3.49878 C 1.29 -6.57 -0.73 -8.54 -0.78246 -8.55928 C -0.9 -8.61 -1.04 -8.56 -0.9758 -8.56287" />
    <path d="M -0.42757 -6.55874 C -0.91 -7.06 -0.46 -6.6 0.06846 -6.03542 C 0.73 -5.34 1.09 -4.94 1.18721 -4.78886 C 1.38 -4.5 1.56 -4.09 1.66502 -3.70294 C 1.73 -3.44 1.75 -3.34 1.74479 -3.00969" />
    <path d="M 4.98014 -0.81102 C 5.02 -0.8 10.77 5.24 8.43456 2.79584" />
    <path d="M 9.43246 3.84799 C 5.02 -0.8 10.77 5.24 10.90784 5.42479 C 10.94 5.47 11.62 6.78 11.23509 6.04605" />
    <path d="M 11.94094 7.42229 C 10.94 5.47 11.62 6.78 12.40776 8.33913 C 13.2 9.9 13.88 11.23 13.91858 11.29471 C 13.97 11.39 14.06 11.47 14.30208 11.64235 C 14.59 11.85 14.62 11.86 14.68658 11.83141 C 14.59 11.85 14.62 11.86 14.70652 11.82262" />
    <path d="M -0.4993 -8.14289 L -0.06764 -7.668 L -15.37113 -1.60263" />
    <path d="M -0.06764 -7.668 L -0.29896 -6.60971" />
    <path d="M 11.93946 5.76688 L 12.30552 5.66679 L -2.59659 11.57307" />
    <path d="M 12.30552 5.66679 L 12.81817 7.07461" />
    <path d="M 11.49087 1.58451 L 11.89589 2.14407 L -1.70715 7.53548" />
    <path d="M 11.89589 2.14407 L 11.51816 3.02134" />
    <path d="M 15.95973 -6.61031 L 16.36475 -6.05075 L 1.1471 -0.0194" />
    <path d="M 16.36475 -6.05075 L 15.98702 -5.17347" />
    <path d="M -0.4993 -8.14289 L -15.84497 -2.0608" />
    <path d="M -14.66579 -0.91558 L -0.29896 -6.60971" />
    <path d="M -13.89778 -1.86437 A 0.25 0.12938 137.73025 0 1 -13.75134 -1.85615 A 0.25 0.12938 137.73025 0 1 -14.12133 -1.51984 A 0.25 0.12938 137.73025 0 1 -13.89778 -1.86437 Z" />
    <path d="M -12.69314 -2.34182 A 0.25 0.12938 137.73025 0 1 -12.54669 -2.3336 A 0.25 0.12938 137.73025 0 1 -12.91669 -1.99729 A 0.25 0.12938 137.73025 0 1 -12.69314 -2.34182 Z" />
    <path d="M -11.48849 -2.81927 A 0.25 0.12938 137.73025 0 1 -11.34205 -2.81104 A 0.25 0.12938 137.73025 0 1 -11.71204 -2.47473 A 0.25 0.12938 137.73025 0 1 -11.48849 -2.81927 Z" />
    <path d="M -10.28385 -3.29672 A 0.25 0.12938 137.73025 0 1 -10.1374 -3.28849 A 0.25 0.12938 137.73025 0 1 -10.5074 -2.95218 A 0.25 0.12938 137.73025 0 1 -10.28385 -3.29672 Z" />
    <path d="M -9.0792 -3.77417 A 0.25 0.12938 137.73025 0 1 -8.93276 -3.76594 A 0.25 0.12938 137.73025 0 1 -9.30275 -3.42963 A 0.25 0.12938 137.73025 0 1 -9.0792 -3.77417 Z" />
    <path d="M -7.87455 -4.25161 A 0.25 0.12938 137.73025 0 1 -7.72811 -4.24339 A 0.25 0.12938 137.73025 0 1 -8.09811 -3.90708 A 0.25 0.12938 137.73025 0 1 -7.87455 -4.25161 Z" />
    <path d="M -6.66991 -4.72906 A 0.25 0.12938 137.73025 0 1 -6.52347 -4.72084 A 0.25 0.12938 137.73025 0 1 -6.89346 -4.38452 A 0.25 0.12938 137.73025 0 1 -6.66991 -4.72906 Z" />
    <path d="M -5.46526 -5.20651 A 0.25 0.12938 137.73025 0 1 -5.31882 -5.19828 A 0.25 0.12938 137.73025 0 1 -5.68881 -4.86197 A 0.25 0.12938 137.73025 0 1 -5.46526 -5.20651 Z" />
    <path d="M -4.26062 -5.68396 A 0.25 0.12938 137.73025 0 1 -4.11418 -5.67573 A 0.25 0.12938 137.73025 0 1 -4.48417 -5.33942 A 0.25 0.12938 137.73025 0 1 -4.26062 -5.68396 Z" />
    <path d="M -3.05597 -6.1614 A 0.25 0.12938 137.73025 0 1 -2.90953 -6.15318 A 0.25 0.12938 137.73025 0 1 -3.27952 -5.81687 A 0.25 0.12938 137.73025 0 1 -3.05597 -6.1614 Z" />
    <path d="M -1.85133 -6.63885 A 0.25 0.12938 137.73025 0 1 -1.70488 -6.63063 A 0.25 0.12938 137.73025 0 1 -2.07488 -6.29432 A 0.25 0.12938 137.73025 0 1 -1.85133 -6.63885 Z" />
    <path d="M 11.93946 5.76688 L -2.60935 11.53313" />
    <path d="M -2.13253 13.00015 L 12.81817 7.07461" />
    <path d="M 11.49087 1.58451 L -1.34465 6.67172" />
    <path d="M -2.07222 8.40774 L 11.51816 3.02134" />
    <path d="M -1.85111 7.87912 A 0.25 0.09738 144.10252 0 1 -1.8435 7.88698 A 0.25 0.09738 144.10252 0 1 -1.9276 8.06186" />
    <path d="M -0.77841 7.40991 A 0.25 0.09738 144.10252 0 1 -0.63885 7.40954 A 0.25 0.09738 144.10252 0 1 -1.04388 7.7027 A 0.25 0.09738 144.10252 0 1 -0.77841 7.40991 Z" />
    <path d="M 0.42623 6.93246 A 0.25 0.09738 144.10252 0 1 0.56579 6.93209 A 0.25 0.09738 144.10252 0 1 0.16076 7.22526 A 0.25 0.09738 144.10252 0 1 0.42623 6.93246 Z" />
    <path d="M 1.63088 6.45501 A 0.25 0.09738 144.10252 0 1 1.77044 6.45464 A 0.25 0.09738 144.10252 0 1 1.36541 6.74781 A 0.25 0.09738 144.10252 0 1 1.63088 6.45501 Z" />
    <path d="M 2.83552 5.97756 A 0.25 0.09738 144.10252 0 1 2.97509 5.97719 A 0.25 0.09738 144.10252 0 1 2.57005 6.27036 A 0.25 0.09738 144.10252 0 1 2.83552 5.97756 Z" />
    <path d="M 4.04017 5.50012 A 0.25 0.09738 144.10252 0 1 4.17973 5.49975 A 0.25 0.09738 144.10252 0 1 3.7747 5.79291 A 0.25 0.09738 144.10252 0 1 4.04017 5.50012 Z" />
    <path d="M 5.24481 5.02267 A 0.25 0.09738 144.10252 0 1 5.38438 5.0223 A 0.25 0.09738 144.10252 0 1 4.97934 5.31547 A 0.25 0.09738 144.10252 0 1 5.24481 5.02267 Z" />
    <path d="M 6.44946 4.54522 A 0.25 0.09738 144.10252 0 1 6.58902 4.54485 A 0.25 0.09738 144.10252 0 1 6.18399 4.83802 A 0.25 0.09738 144.10252 0 1 6.44946 4.54522 Z" />
    <path d="M 7.6541 4.06777 A 0.25 0.09738 144.10252 0 1 7.79367 4.0674 A 0.25 0.09738 144.10252 0 1 7.38863 4.36057 A 0.25 0.09738 144.10252 0 1 7.6541 4.06777 Z" />
    <path d="M 8.85875 3.59033 A 0.25 0.09738 144.10252 0 1 8.99831 3.58995 A 0.25 0.09738 144.10252 0 1 8.59328 3.88312 A 0.25 0.09738 144.10252 0 1 8.85875 3.59033 Z" />
    <path d="M 10.0634 3.11288 A 0.25 0.09738 144.10252 0 1 10.20296 3.11251 A 0.25 0.09738 144.10252 0 1 9.79792 3.40568 A 0.25 0.09738 144.10252 0 1 10.0634 3.11288 Z" />
    <path d="M 15.95973 -6.61031 L 0.8415 -0.61836" />
    <path d="M 1.12295 0.71774 L 15.98702 -5.17347" />
    <path d="M 2.4858 -0.30746 A 0.25 0.09738 144.10252 0 1 2.62537 -0.30783 A 0.25 0.09738 144.10252 0 1 2.22033 -0.01466 A 0.25 0.09738 144.10252 0 1 2.4858 -0.30746 Z" />
    <path d="M 3.69045 -0.78491 A 0.25 0.09738 144.10252 0 1 3.83001 -0.78528 A 0.25 0.09738 144.10252 0 1 3.42498 -0.49211 A 0.25 0.09738 144.10252 0 1 3.69045 -0.78491 Z" />
    <path d="M 4.89509 -1.26236 A 0.25 0.09738 144.10252 0 1 5.03466 -1.26273 A 0.25 0.09738 144.10252 0 1 4.62962 -0.96956 A 0.25 0.09738 144.10252 0 1 4.89509 -1.26236 Z" />
    <path d="M 6.09974 -1.7398 A 0.25 0.09738 144.10252 0 1 6.2393 -1.74017 A 0.25 0.09738 144.10252 0 1 5.83427 -1.44701 A 0.25 0.09738 144.10252 0 1 6.09974 -1.7398 Z" />
    <path d="M 7.30438 -2.21725 A 0.25 0.09738 144.10252 0 1 7.44395 -2.21762 A 0.25 0.09738 144.10252 0 1 7.03891 -1.92445 A 0.25 0.09738 144.10252 0 1 7.30438 -2.21725 Z" />
    <path d="M 8.50903 -2.6947 A 0.25 0.09738 144.10252 0 1 8.64859 -2.69507 A 0.25 0.09738 144.10252 0 1 8.24356 -2.4019 A 0.25 0.09738 144.10252 0 1 8.50903 -2.6947 Z" />
    <path d="M 9.71368 -3.17215 A 0.25 0.09738 144.10252 0 1 9.85324 -3.17252 A 0.25 0.09738 144.10252 0 1 9.4482 -2.87935 A 0.25 0.09738 144.10252 0 1 9.71368 -3.17215 Z" />
    <path d="M 10.91832 -3.64959 A 0.25 0.09738 144.10252 0 1 11.05788 -3.64997 A 0.25 0.09738 144.10252 0 1 10.65285 -3.3568 A 0.25 0.09738 144.10252 0 1 10.91832 -3.64959 Z" />
    <path d="M 12.12297 -4.12704 A 0.25 0.09738 144.10252 0 1 12.26253 -4.12741 A 0.25 0.09738 144.10252 0 1 11.8575 -3.83424 A 0.25 0.09738 144.10252 0 1 12.12297 -4.12704 Z" />
    <path d="M 13.32761 -4.60449 A 0.25 0.09738 144.10252 0 1 13.46718 -4.60486 A 0.25 0.09738 144.10252 0 1 13.06214 -4.31169 A 0.25 0.09738 144.10252 0 1 13.32761 -4.60449 Z" />
    <path d="M 14.53226 -5.08194 A 0.25 0.09738 144.10252 0 1 14.67182 -5.08231 A 0.25 0.09738 144.10252 0 1 14.26679 -4.78914 A 0.25 0.09738 144.10252 0 1 14.53226 -5.08194 Z" />
    <path d="M 0.41858 -0.97972 C 0.36 -1 0.27 -0.98 0.27392 -0.96449 L -0.32841 -0.72577 L -0.93073 -0.48705 C -0.84 -0.52 -0.93 -0.5 -0.98456 -0.45796 C -1.04 -0.42 -2.22 1.53 -3.60345 3.87737 C -5.05 6.33 -6.18 8.19 -6.25466 8.25559 C -6.43 8.41 -6.71 8.4 -6.38081 8.33239 C -6.43 8.41 -6.71 8.4 -6.96869 8.24561 C -7.13 8.15 -7.95 7.35 -12.26024 3.10592 C -15.37 0.04 -17.39 -1.93 -17.44672 -1.95458 C -17.56 -2.01 -17.7 -1.96 -17.64007 -1.95818 C -17.56 -2.01 -17.7 -1.96 -17.75443 -1.85473 C -17.83 -1.7 -17.88 -1.26 -17.83564 -1.06606 C -17.81 -0.92 -17.62 -0.5 -17.57671 -0.46287 C -17.57 -0.46 -17.13 0.01 -16.5958 0.56927 C -15.94 1.26 -15.58 1.66 -15.47705 1.81584 C -15.28 2.1 -15.1 2.52 -14.99924 2.90176 C -14.93 3.16 -14.92 3.26 -14.91947 3.59501 L -14.92094 3.98389 L -15.49207 5.89467 C -15.81 6.95 -16.06 7.87 -16.0632 7.94659 C -16.06 8.05 -16.03 8.15 -15.95937 8.30979 L -15.85554 8.53186 L -15.4865 8.79756 C -15.13 9.06 -15.12 9.06 -15.0682 9.02921 C -15.13 9.06 -15.12 9.06 -15.02904 9.00778 C -14.98 8.98 -14.36 8.2 -13.64962 7.29016 C -12.94 6.38 -12.32 5.61 -12.26225 5.59313 C -12.94 6.38 -12.32 5.61 -12.26196 5.59302 C -12.13 5.55 -11.93 5.59 -11.76858 5.712 C -11.65 5.8 -5.89 11.84 -5.75642 12.02948 C -5.72 12.07 -5.05 13.39 -4.25651 14.94382 C -3.47 16.5 -2.79 17.83 -2.74568 17.8994 C -2.69 17.99 -2.6 18.07 -2.36218 18.24705 C -2.07 18.46 -2.04 18.47 -1.97768 18.4361 C -2.07 18.46 -2.04 18.47 -1.95774 18.42732 C -1.84 18.37 -1.81 18.17 -1.87051 17.93352 C -1.9 17.84 -2.37 16.41 -2.91556 14.75414 C -3.46 13.1 -3.94 11.65 -3.96062 11.53406 C -4.02 11.27 -4.02 10.76 -3.9713 10.56781 C -3.95 10.49 -3.05 8.34 -1.97608 5.78697 C -0.2 1.58 -0.02 1.13 -0.00963 0.89876 C 0 0.69 -0.01 0.61 -0.06773 0.42519 C -0.2 0.01 -0.54 -0.43 -0.78606 -0.50227 C -0.84 -0.52 -0.93 -0.5 -0.93073 -0.48705" />
    <path d="M -5.88065 7.67636 C -5.93 7.67 -6.75 6.87 -11.05559 2.62847 L -11.65791 2.86719 C -14.77 -0.2 -16.79 -2.17 -16.8444 -2.19331 L -17.44672 -1.95458" />
    <path d="M -11.05559 2.62847 C -14.17 -0.44 -16.19 -2.41 -16.24208 -2.43203 L -16.8444 -2.19331 C -16.96 -2.24 -17.1 -2.2 -17.03774 -2.1969 L -17.64007 -1.95818" />
    <path d="M -16.24208 -2.43203 C -16.36 -2.48 -16.5 -2.44 -16.43542 -2.43562 L -17.03774 -2.1969" />
    <path d="M -13.86356 8.55177 C -13.92 8.58 -13.91 8.58 -13.8244 8.53034 L -14.42672 8.76906 C -14.38 8.74 -13.76 7.97 -13.04729 7.05143 L -13.64962 7.29016" />
    <path d="M -13.8244 8.53034 C -13.78 8.5 -13.16 7.73 -12.44497 6.81271 L -13.04729 7.05143 C -12.34 6.14 -11.71 5.37 -11.91122 5.63053" />
    <path d="M -12.44497 6.81271 C -11.73 5.9 -11.11 5.13 -11.65927 5.81873" />
    <path d="M -0.77304 17.95865 C -0.87 17.98 -0.84 17.99 -0.7531 17.94987 L -1.35542 18.18859 C -1.24 18.13 -1.2 17.93 -1.26818 17.69479 L -1.87051 17.93352" />
    <path d="M -0.7531 17.94987 C -0.64 17.89 -0.6 17.7 -0.66586 17.45607 L -1.26818 17.69479 C -1.29 17.6 -1.76 16.17 -2.31324 14.51541 L -2.91556 14.75414" />
    <path d="M -0.66586 17.45607 C -0.69 17.36 -1.16 15.93 -1.71092 14.27669 L -2.31324 14.51541 C -2.86 12.86 -3.33 11.41 -3.3583 11.29534 L -3.96062 11.53406" />
    <path d="M -1.71092 14.27669 C -2.26 12.62 -2.73 11.17 -2.75598 11.05661 L -3.3583 11.29534 C -3.42 11.03 -3.42 10.52 -3.36897 10.32909 L -3.9713 10.56781" />
    <path d="M -2.75598 11.05661 C -2.81 10.79 -2.82 10.28 -2.76665 10.09036 L -3.36897 10.32909 C -3.35 10.25 -2.45 8.1 -1.37376 5.54825 L -1.97608 5.78697" />
    <path d="M -2.76665 10.09036 C -2.74 10.01 -1.85 7.86 -0.77143 5.30952 L -1.37376 5.54825 C 0.4 1.34 0.58 0.89 0.59269 0.66004 L -0.00963 0.89876" />
    <path d="M -0.77143 5.30952 C 1 1.1 1.18 0.65 1.19501 0.42132 L 0.59269 0.66004 C 0.6 0.45 0.59 0.37 0.5346 0.18647 L -0.06773 0.42519" />
    <path d="M 1.19501 0.42132 C 1.21 0.22 1.19 0.13 1.13692 -0.05225 L 0.5346 0.18647 C 0.4 -0.23 0.06 -0.67 -0.18374 -0.74099 L -0.78606 -0.50227" />
    <path d="M 1.13692 -0.05225 C 1 -0.47 0.66 -0.91 0.41858 -0.97972 L -0.18374 -0.74099 C -0.24 -0.76 -0.33 -0.74 -0.32841 -0.72577" />
    <path d="M -6.14831 8.10283 C -5.83 8.17 -6.11 8.17 -6.36637 8.00689 L -6.96869 8.24561" />
    <path d="M -6.36637 8.00689 C -6.53 7.91 -7.35 7.11 -11.65791 2.86719 L -12.26024 3.10592" />
    <path d="M -1.37536 18.19738 C -1.47 18.22 -1.44 18.23 -1.35542 18.18859 L -1.95774 18.42732" />
    <path d="M -14.46588 8.79049 C -14.52 8.82 -14.51 8.82 -14.42672 8.76906 L -15.02904 9.00778" />
    <path d="M -12.5197 3.82581 A 0.25 0.12593 248.37966 0 1 -12.46558 3.73901 A 0.25 0.12593 248.37966 0 1 -12.28136 4.20383 A 0.25 0.12593 248.37966 0 1 -12.5197 3.82581 Z" />
    <path d="M -11.93479 4.40824 A 0.25 0.12593 248.37966 0 1 -11.88068 4.32144 A 0.25 0.12593 248.37966 0 1 -11.69646 4.78626 A 0.25 0.12593 248.37966 0 1 -11.93479 4.40824 Z" />
    <path d="M -11.34989 4.99067 A 0.25 0.12593 248.37966 0 1 -11.29578 4.90387 A 0.25 0.12593 248.37966 0 1 -11.11155 5.36869 A 0.25 0.12593 248.37966 0 1 -11.34989 4.99067 Z" />
    <path d="M -10.76499 5.5731 A 0.25 0.12593 248.37966 0 1 -10.71088 5.4863 A 0.25 0.12593 248.37966 0 1 -10.52665 5.95112 A 0.25 0.12593 248.37966 0 1 -10.76499 5.5731 Z" />
    <path d="M -10.18009 6.15553 A 0.25 0.12593 248.37966 0 1 -10.12598 6.06873 A 0.25 0.12593 248.37966 0 1 -9.94175 6.53355 A 0.25 0.12593 248.37966 0 1 -10.18009 6.15553 Z" />
    <path d="M -9.59519 6.73796 A 0.25 0.12593 248.37966 0 1 -9.54108 6.65116 A 0.25 0.12593 248.37966 0 1 -9.35685 7.11598 A 0.25 0.12593 248.37966 0 1 -9.59519 6.73796 Z" />
    <path d="M -16.0291 0.33123 A 0.25 0.12593 248.37966 0 1 -15.97499 0.24443 A 0.25 0.12593 248.37966 0 1 -15.79076 0.70925 A 0.25 0.12593 248.37966 0 1 -16.0291 0.33123 Z" />
    <path d="M -15.4442 0.91366 A 0.25 0.12593 248.37966 0 1 -15.39009 0.82686 A 0.25 0.12593 248.37966 0 1 -15.20586 1.29168 A 0.25 0.12593 248.37966 0 1 -15.4442 0.91366 Z" />
    <path d="M -14.8593 1.49609 A 0.25 0.12593 248.37966 0 1 -14.80519 1.40929 A 0.25 0.12593 248.37966 0 1 -14.62096 1.87411 A 0.25 0.12593 248.37966 0 1 -14.8593 1.49609 Z" />
    <path d="M -14.2744 2.07852 A 0.25 0.12593 248.37966 0 1 -14.22029 1.99172 A 0.25 0.12593 248.37966 0 1 -14.03606 2.45654 A 0.25 0.12593 248.37966 0 1 -14.2744 2.07852 Z" />
    <path d="M -13.6895 2.66095 A 0.25 0.12593 248.37966 0 1 -13.63539 2.57415 A 0.25 0.12593 248.37966 0 1 -13.45116 3.03897 A 0.25 0.12593 248.37966 0 1 -13.6895 2.66095 Z" />
    <path d="M -13.1046 3.24338 A 0.25 0.12593 248.37966 0 1 -13.05048 3.15658 A 0.25 0.12593 248.37966 0 1 -12.86626 3.6214 A 0.25 0.12593 248.37966 0 1 -13.1046 3.24338 Z" />
    <path d="M -4.5407 7.71348 A 0.25 0.12593 248.37966 0 1 -4.5606 7.34822 A 0.25 0.12593 248.37966 0 1 -4.37637 7.81304 A 0.25 0.12593 248.37966 0 1 -4.5407 7.71348 Z" />
    <path d="M -4.25183 7.18209 A 0.25 0.12593 248.37966 0 1 -4.27172 6.81684 A 0.25 0.12593 248.37966 0 1 -4.0875 7.28166 A 0.25 0.12593 248.37966 0 1 -4.25183 7.18209 Z" />
    <path d="M -3.96296 6.65071 A 0.25 0.12593 248.37966 0 1 -3.98285 6.28545 A 0.25 0.12593 248.37966 0 1 -3.79862 6.75028 A 0.25 0.12593 248.37966 0 1 -3.96296 6.65071 Z" />
    <path d="M -3.67408 6.11933 A 0.25 0.12593 248.37966 0 1 -3.69398 5.75407 A 0.25 0.12593 248.37966 0 1 -3.50975 6.2189 A 0.25 0.12593 248.37966 0 1 -3.67408 6.11933 Z" />
    <path d="M -3.38521 5.58795 A 0.25 0.12593 248.37966 0 1 -3.40511 5.22269 A 0.25 0.12593 248.37966 0 1 -3.22088 5.68751 A 0.25 0.12593 248.37966 0 1 -3.38521 5.58795 Z" />
    <path d="M -3.09634 5.05656 A 0.25 0.12593 248.37966 0 1 -3.11623 4.69131 A 0.25 0.12593 248.37966 0 1 -2.93201 5.15613 A 0.25 0.12593 248.37966 0 1 -3.09634 5.05656 Z" />
    <path d="M -2.80746 4.52518 A 0.25 0.12593 248.37966 0 1 -2.82736 4.15993 A 0.25 0.12593 248.37966 0 1 -2.64313 4.62475 A 0.25 0.12593 248.37966 0 1 -2.80746 4.52518 Z" />
    <path d="M -2.51859 3.9938 A 0.25 0.12593 248.37966 0 1 -2.53849 3.62854 A 0.25 0.12593 248.37966 0 1 -2.35426 4.09337 A 0.25 0.12593 248.37966 0 1 -2.51859 3.9938 Z" />
    <path d="M -2.22972 3.46242 A 0.25 0.12593 248.37966 0 1 -2.24961 3.09716 A 0.25 0.12593 248.37966 0 1 -2.06539 3.56198 A 0.25 0.12593 248.37966 0 1 -2.22972 3.46242 Z" />
    <path d="M -1.94085 2.93104 A 0.25 0.12593 248.37966 0 1 -1.96074 2.56578 A 0.25 0.12593 248.37966 0 1 -1.77651 3.0306 A 0.25 0.12593 248.37966 0 1 -1.94085 2.93104 Z" />
    <path d="M -1.65197 2.39965 A 0.25 0.12593 248.37966 0 1 -1.67187 2.0344 A 0.25 0.12593 248.37966 0 1 -1.48764 2.49922 A 0.25 0.12593 248.37966 0 1 -1.65197 2.39965 Z" />
    <path d="M -1.3631 1.86827 A 0.25 0.12593 248.37966 0 1 -1.383 1.50301 A 0.25 0.12593 248.37966 0 1 -1.19877 1.96784 A 0.25 0.12593 248.37966 0 1 -1.3631 1.86827 Z" />
    <path d="M 10.67008 1.25468 L 10.2979 1.4022 L 9.69558 1.64092" />
    <path d="M 5.60867 -3.97622 L 5.00635 -3.7375 L 4.40403 -3.49878" />
    <path d="M 0.42218 -9.03672 L -0.18014 -8.798 L -0.78246 -8.55928" />
    <path d="M -5.99418 7.85938 L -6.36637 8.00689" />
    <path d="M 15.89122 11.35396 L 15.2889 11.59268 L 14.68658 11.83141" />
    <path d="M 2.8007 1.94707 L 2.19838 2.1858 L 1.59606 2.42452" />
    <path d="M -0.77304 17.95865 L -1.37536 18.19738 L -1.97768 18.4361" />
    <path d="M -13.86356 8.55177 L -14.46588 8.79049 L -15.0682 9.02921" />
</svg>