<svg version="1.1" xmlns="http://www.w3.org/2000/svg" viewBox="-19.57648130272428 -10.133355039032969 39.14695162193395 29.78082537936873" fill="none" stroke="black" stroke-width="0.6%" vector-effect="non-scaling-stroke">
    <path d="M 17.75319 -8.1777 C 17.7 -8.19 17.6 -8.17 17.60285 -8.15777 L 17.17098 -7.97876 L 16.73911 -7.79976 C 16.83 -7.83 16.74 -7.81 16.68316 -7.76877 C 16.63 -7.73 15.4 -5.73 16.18907 -6.99707" />
    <path d="M 17.32132 -7.99869 C 17.26 -8.01 17.17 -7.99 17.17098 -7.97876" />
    <path d="M 18.49969 -7.26728 C 18.36 -7.68 18.01 -8.11 17.75319 -8.1777 L 17.32132 -7.99869 L 16.88944 -7.81969 C 16.83 -7.83 16.74 -7.81 16.73911 -7.79976" />
    <path d="M 18.06782 -7.08827 C 17.93 -7.5 17.58 -7.94 17.32132 -7.99869" />
    <path d="M 18.56007 -6.79255 C 18.57 -7 18.56 -7.09 18.49969 -7.26728 L 18.06782 -7.08827 L 17.63595 -6.90927 C 17.5 -7.32 17.15 -7.76 16.88944 -7.81969" />
    <path d="M 16.5165 -1.81054 C 18.36 -6.1 18.55 -6.56 18.56007 -6.79255 L 18.1282 -6.61355 C 18.14 -6.82 18.13 -6.91 18.06782 -7.08827" />
    <path d="M 11.41154 0.86455 C 11.89 0.97 11.6 0.97 11.32809 0.82309 C 11.16 0.73 10.31 -0.05 7.87916 -2.28914" />
    <path d="M 14.44304 3.06435 C 14.47 2.98 15.4 0.79 16.5165 -1.81054 L 16.08463 -1.63153 C 17.93 -5.92 18.12 -6.38 18.1282 -6.61355 L 17.69632 -6.43455 C 17.71 -6.64 17.7 -6.73 17.63595 -6.90927" />
    <path d="M 6.93373 -3.16088 C 11.16 0.73 10.31 -0.05 5.82902 -4.18034 C 2.59 -7.17 0.49 -9.09 0.43913 -9.10742 C 0.32 -9.16 0.17 -9.1 0.23822 -9.10487 L -0.19365 -8.92586 L -0.62553 -8.74686 C -0.55 -8.8 -0.69 -8.75 -0.74438 -8.6391 C -0.82 -8.48 -0.87 -8.04 -0.84398 -8.04362" />
    <path d="M 14.45413 4.0364 C 14.39 3.77 14.39 3.26 14.44304 3.06435 L 14.01117 3.24335 C 14.03 3.16 14.97 0.97 16.08463 -1.63153 L 15.65276 -1.45253 C 17.49 -5.74 17.68 -6.2 17.69632 -6.43455" />
    <path d="M 15.54017 7.24356 C 14.97 5.6 14.48 4.15 14.45413 4.0364 L 14.02226 4.2154 C 13.96 3.95 13.96 3.43 14.01117 3.24335 L 13.57929 3.42236 C 13.6 3.34 14.54 1.15 15.65276 -1.45253" />
    <path d="M 16.62621 10.40977 C 16.6 10.32 16.11 8.89 15.54017 7.24356 L 15.1083 7.42257 C 14.54 5.78 14.05 4.33 14.02226 4.2154 L 13.59039 4.3944 C 13.53 4.13 13.52 3.61 13.57929 3.42236" />
    <path d="M 16.53556 10.9095 C 16.66 10.85 16.69 10.65 16.62621 10.40977 L 16.19434 10.58878 C 16.17 10.49 15.68 9.07 15.1083 7.42257 L 14.67643 7.60157 C 14.11 5.95 13.62 4.51 13.59039 4.3944" />
    <path d="M 16.51483 10.91897 C 16.42 10.94 16.45 10.95 16.53556 10.9095 L 16.10369 11.0885 C 16.23 11.03 16.26 10.83 16.19434 10.58878 L 15.76247 10.76778 C 15.74 10.67 15.25 9.25 14.67643 7.60157" />
    <path d="M 4.38516 0.07482 C 5.12 -0.87 5.77 -1.66 5.43837 -1.23908" />
    <path d="M 2.95163 1.84739 C 3 1.82 3.65 1.02 4.38516 0.07482 L 3.95328 0.25383 C 4.69 -0.69 5.34 -1.48 5.05524 -1.11867" />
    <path d="M 2.91093 1.8702 C 2.85 1.9 2.86 1.9 2.95163 1.84739 L 2.51976 2.02639 C 2.57 1.99 3.22 1.2 3.95328 0.25383 L 3.52141 0.43283 C 4.26 -0.51 4.91 -1.3 4.62337 -0.93967" />
    <path d="M 15.15585 -5.30521 C 16.63 -7.73 15.4 -5.73 13.96157 -3.32231 C 12.45 -0.81 11.29 1.1 11.20638 1.16835 C 11.03 1.33 10.73 1.33 11.07527 1.24966 C 11.03 1.33 10.73 1.33 10.46435 1.18109 C 10.3 1.09 9.44 0.31 7.01542 -1.93113" />
    <path d="M 11.25026 1.11072 C 11.46 1.15 11.17 1.15 10.89622 1.00209 C 10.73 0.91 9.88 0.13 7.44729 -2.11013" />
    <path d="M 6.50186 -2.98188 C 10.73 0.91 9.88 0.13 5.39715 -4.00133 C 2.16 -6.99 0.06 -8.91 0.00726 -8.92841 C -0.11 -8.98 -0.26 -8.93 -0.19365 -8.92586" />
    <path d="M 16.08295 11.09798 C 15.98 11.12 16.01 11.13 16.10369 11.0885 L 15.67182 11.2675 C 15.79 11.21 15.83 11.01 15.76247 10.76778" />
    <path d="M 2.20176 -3.24525 L 2.20023 -2.85385 L 1.62078 -0.95875" />
    <path d="M 2.47906 2.04921 C 2.42 2.08 2.43 2.08 2.51976 2.02639 L 2.08789 2.2054 C 2.14 2.17 2.78 1.38 3.52141 0.43283" />
    <path d="M 1.12108 1.53267 L 1.22898 1.75283 L 1.61249 2.00844 C 1.99 2.26 2 2.26 2.04719 2.22821 C 1.99 2.26 2 2.26 2.08789 2.2054" />
    <path d="M 1.05013 -6.49291 A 0.2475 0.13038 247.48677 0 1 1.1058 -6.58111 A 0.2475 0.13038 247.48677 0 1 1.29534 -6.12383 A 0.2475 0.13038 247.48677 0 1 1.05013 -6.49291 Z" />
    <path d="M 1.65797 -5.92546 A 0.2475 0.13038 247.48677 0 1 1.71364 -6.01365 A 0.2475 0.13038 247.48677 0 1 1.90318 -5.55637 A 0.2475 0.13038 247.48677 0 1 1.65797 -5.92546 Z" />
    <path d="M 2.26581 -5.358 A 0.2475 0.13038 247.48677 0 1 2.32148 -5.44619 A 0.2475 0.13038 247.48677 0 1 2.51102 -4.98891 A 0.2475 0.13038 247.48677 0 1 2.26581 -5.358 Z" />
    <path d="M 2.87365 -4.79054 A 0.2475 0.13038 247.48677 0 1 2.92932 -4.87873 A 0.2475 0.13038 247.48677 0 1 3.11886 -4.42146 A 0.2475 0.13038 247.48677 0 1 2.87365 -4.79054 Z" />
    <path d="M 3.48149 -4.22308 A 0.2475 0.13038 247.48677 0 1 3.53716 -4.31127 A 0.2475 0.13038 247.48677 0 1 3.72669 -3.854 A 0.2475 0.13038 247.48677 0 1 3.48149 -4.22308 Z" />
    <path d="M 4.08933 -3.65562 A 0.2475 0.13038 247.48677 0 1 4.145 -3.74382 A 0.2475 0.13038 247.48677 0 1 4.33453 -3.28654 A 0.2475 0.13038 247.48677 0 1 4.08933 -3.65562 Z" />
    <path d="M 4.69717 -3.08816 A 0.2475 0.13038 247.48677 0 1 4.75284 -3.17636 A 0.2475 0.13038 247.48677 0 1 4.94237 -2.71908 A 0.2475 0.13038 247.48677 0 1 4.69717 -3.08816 Z" />
    <path d="M 5.30501 -2.52071 A 0.2475 0.13038 247.48677 0 1 5.36068 -2.6089 A 0.2475 0.13038 247.48677 0 1 5.48992 -2.56244" />
    <path d="M 5.3022 -2.48464 A 0.2475 0.13038 247.48677 0 1 5.30501 -2.52071" />
    <path d="M 6.52068 -1.38579 A 0.2475 0.13038 247.48677 0 1 6.57636 -1.47398 A 0.2475 0.13038 247.48677 0 1 6.76589 -1.01671 A 0.2475 0.13038 247.48677 0 1 6.52068 -1.38579 Z" />
    <path d="M 8.3442 0.31658 A 0.2475 0.13038 247.48677 0 1 8.39987 0.22839 A 0.2475 0.13038 247.48677 0 1 8.58941 0.68567 A 0.2475 0.13038 247.48677 0 1 8.3442 0.31658 Z" />
    <path d="M 7.12852 -0.81833 A 0.2475 0.13038 247.48677 0 1 7.1842 -0.90652 A 0.2475 0.13038 247.48677 0 1 7.37373 -0.44925 A 0.2475 0.13038 247.48677 0 1 7.12852 -0.81833 Z" />
    <path d="M 7.73636 -0.25087 A 0.2475 0.13038 247.48677 0 1 7.79204 -0.33907 A 0.2475 0.13038 247.48677 0 1 7.98157 0.11821 A 0.2475 0.13038 247.48677 0 1 7.73636 -0.25087 Z" />
    <path d="M 9.55988 1.4515 A 0.2475 0.13038 247.48677 0 1 9.61555 1.36331 A 0.2475 0.13038 247.48677 0 1 9.80509 1.82059 A 0.2475 0.13038 247.48677 0 1 9.55988 1.4515 Z" />
    <path d="M 8.95204 0.88404 A 0.2475 0.13038 247.48677 0 1 9.00771 0.79585 A 0.2475 0.13038 247.48677 0 1 9.19725 1.25313 A 0.2475 0.13038 247.48677 0 1 8.95204 0.88404 Z" />
    <path d="M 10.19506 1.95194 A 0.2475 0.13038 247.48677 0 1 10.22339 1.93077 A 0.2475 0.13038 247.48677 0 1 10.2584 1.92569" />
    <path d="M 12.98831 0.56672 A 0.2475 0.13038 247.48677 0 1 12.96784 0.20344 A 0.2475 0.13038 247.48677 0 1 13.15737 0.66072 A 0.2475 0.13038 247.48677 0 1 12.98831 0.56672 Z" />
    <path d="M 13.28851 0.02274 A 0.2475 0.13038 247.48677 0 1 13.26804 -0.34054 A 0.2475 0.13038 247.48677 0 1 13.45758 0.11674 A 0.2475 0.13038 247.48677 0 1 13.28851 0.02274 Z" />
    <path d="M 13.58871 -0.52124 A 0.2475 0.13038 247.48677 0 1 13.56824 -0.88451 A 0.2475 0.13038 247.48677 0 1 13.75778 -0.42724 A 0.2475 0.13038 247.48677 0 1 13.58871 -0.52124 Z" />
    <path d="M 13.88891 -1.06522 A 0.2475 0.13038 247.48677 0 1 13.86845 -1.42849 A 0.2475 0.13038 247.48677 0 1 14.05798 -0.97121 A 0.2475 0.13038 247.48677 0 1 13.88891 -1.06522 Z" />
    <path d="M 14.18911 -1.6092 A 0.2475 0.13038 247.48677 0 1 14.16865 -1.97247 A 0.2475 0.13038 247.48677 0 1 14.35818 -1.51519 A 0.2475 0.13038 247.48677 0 1 14.18911 -1.6092 Z" />
    <path d="M 14.48932 -2.15317 A 0.2475 0.13038 247.48677 0 1 14.46885 -2.51645 A 0.2475 0.13038 247.48677 0 1 14.65838 -2.05917 A 0.2475 0.13038 247.48677 0 1 14.48932 -2.15317 Z" />
    <path d="M 14.78952 -2.69715 A 0.2475 0.13038 247.48677 0 1 14.76905 -3.06042 A 0.2475 0.13038 247.48677 0 1 14.95858 -2.60315 A 0.2475 0.13038 247.48677 0 1 14.78952 -2.69715 Z" />
    <path d="M 15.08972 -3.24113 A 0.2475 0.13038 247.48677 0 1 15.06925 -3.6044 A 0.2475 0.13038 247.48677 0 1 15.25879 -3.14712 A 0.2475 0.13038 247.48677 0 1 15.08972 -3.24113 Z" />
    <path d="M 15.38992 -3.78511 A 0.2475 0.13038 247.48677 0 1 15.36945 -4.14838 A 0.2475 0.13038 247.48677 0 1 15.55899 -3.6911 A 0.2475 0.13038 247.48677 0 1 15.38992 -3.78511 Z" />
    <path d="M 15.69012 -4.32908 A 0.2475 0.13038 247.48677 0 1 15.66966 -4.69236 A 0.2475 0.13038 247.48677 0 1 15.85919 -4.23508 A 0.2475 0.13038 247.48677 0 1 15.69012 -4.32908 Z" />
    <path d="M 15.99033 -4.87306 A 0.2475 0.13038 247.48677 0 1 15.96986 -5.23633 A 0.2475 0.13038 247.48677 0 1 16.15939 -4.77906 A 0.2475 0.13038 247.48677 0 1 15.99033 -4.87306 Z" />
    <path d="M 16.29053 -5.41704 A 0.2475 0.13038 247.48677 0 1 16.23731 -5.75346" />
    <path d="M 16.3122 -5.7845 A 0.2475 0.13038 247.48677 0 1 16.45959 -5.32304 A 0.2475 0.13038 247.48677 0 1 16.29053 -5.41704" />
    <path d="M 6.06999 -2.80287 C 10.3 1.09 9.44 0.31 4.96528 -3.82233 C 1.73 -6.81 -0.37 -8.73 -0.42461 -8.74941 C -0.55 -8.8 -0.69 -8.75 -0.62553 -8.74686" />
    <path d="M -0.17928 -6.86967 C -0.55 -7.24 -0.09 -6.79 0.45969 -6.23669 C 1.14 -5.56 1.52 -5.17 1.62231 -5.01792 C 1.82 -4.73 2.01 -4.32 2.11886 -3.94036 C 2.19 -3.68 2.2 -3.58 2.20176 -3.24525" />
    <path d="M 1.19254 0.48236 C 1.28 0.15 1.01 1.09 1.01318 1.17047 C 1.01 1.27 1.04 1.37 1.12108 1.53267" />
    <path d="M 5.39853 -1.26096 C 5.1 -1.37 5.31 -1.33 5.47622 -1.21539 C 5.6 -1.13 11.58 4.77 9.1538 2.38352" />
    <path d="M 10.05347 3.27423 C 5.6 -1.13 11.58 4.77 11.72416 4.95029 C 11.76 4.99 12.46 6.29 12.06423 5.56503" />
    <path d="M 12.79247 6.9176 C 11.76 4.99 12.46 6.29 13.2829 7.83526 C 14.11 9.38 14.81 10.69 14.85298 10.76138 C 14.91 10.86 15 10.93 15.25152 11.099 C 15.55 11.3 15.58 11.31 15.65108 11.27698 C 15.55 11.3 15.58 11.31 15.67182 11.2675" />
    <path d="M -0.13034 -8.33942 L 0.19863 -7.99906 L -16.49349 -1.08044" />
    <path d="M 0.19863 -7.99906 L -0.04177 -6.92667" />
    <path d="M 12.79623 5.26163 L 13.07521 5.17919 L -3.09049 11.87962" />
    <path d="M 13.07521 5.17919 L 13.60796 6.57959" />
    <path d="M 12.33005 1.06702 L 12.63871 1.47049 L -2.06232 7.56383" />
    <path d="M 12.63871 1.47049 L 12.24617 2.36539" />
    <path d="M 16.97417 -7.32248 L 17.28283 -6.91902 L 0.74138 -0.06284" />
    <path d="M 17.28283 -6.91902 L 16.89029 -6.02411" />
    <path d="M -0.13034 -8.33942 L -16.85491 -1.40735" />
    <path d="M -15.75989 -0.41176 L -0.04177 -6.92667" />
    <path d="M -14.19256 -1.70827 A 0.2475 0.12603 135.97541 0 1 -14.05426 -1.70333 A 0.2475 0.12603 135.97541 0 1 -14.41018 -1.35932 A 0.2475 0.12603 135.97541 0 1 -14.19256 -1.70827 Z" />
    <path d="M -13.01472 -2.19646 A 0.2475 0.12603 135.97541 0 1 -12.87643 -2.19152 A 0.2475 0.12603 135.97541 0 1 -13.23235 -1.84751 A 0.2475 0.12603 135.97541 0 1 -13.01472 -2.19646 Z" />
    <path d="M -11.83689 -2.68465 A 0.2475 0.12603 135.97541 0 1 -11.6986 -2.67972 A 0.2475 0.12603 135.97541 0 1 -12.05452 -2.33571 A 0.2475 0.12603 135.97541 0 1 -11.83689 -2.68465 Z" />
    <path d="M -10.65906 -3.17285 A 0.2475 0.12603 135.97541 0 1 -10.52076 -3.16791 A 0.2475 0.12603 135.97541 0 1 -10.87669 -2.8239 A 0.2475 0.12603 135.97541 0 1 -10.65906 -3.17285 Z" />
    <path d="M -9.48123 -3.66104 A 0.2475 0.12603 135.97541 0 1 -9.34293 -3.6561 A 0.2475 0.12603 135.97541 0 1 -9.69886 -3.31209 A 0.2475 0.12603 135.97541 0 1 -9.48123 -3.66104 Z" />
    <path d="M -8.3034 -4.14923 A 0.2475 0.12603 135.97541 0 1 -8.1651 -4.14429 A 0.2475 0.12603 135.97541 0 1 -8.52103 -3.80028 A 0.2475 0.12603 135.97541 0 1 -8.3034 -4.14923 Z" />
    <path d="M -7.12557 -4.63742 A 0.2475 0.12603 135.97541 0 1 -6.98727 -4.63248 A 0.2475 0.12603 135.97541 0 1 -7.3432 -4.28848 A 0.2475 0.12603 135.97541 0 1 -7.12557 -4.63742 Z" />
    <path d="M -5.94774 -5.12562 A 0.2475 0.12603 135.97541 0 1 -5.80944 -5.12068 A 0.2475 0.12603 135.97541 0 1 -6.16537 -4.77667 A 0.2475 0.12603 135.97541 0 1 -5.94774 -5.12562 Z" />
    <path d="M -4.76991 -5.61381 A 0.2475 0.12603 135.97541 0 1 -4.63161 -5.60887 A 0.2475 0.12603 135.97541 0 1 -4.98754 -5.26486 A 0.2475 0.12603 135.97541 0 1 -4.76991 -5.61381 Z" />
    <path d="M -3.59208 -6.102 A 0.2475 0.12603 135.97541 0 1 -3.45378 -6.09706 A 0.2475 0.12603 135.97541 0 1 -3.8097 -5.75305 A 0.2475 0.12603 135.97541 0 1 -3.59208 -6.102 Z" />
    <path d="M -2.41424 -6.59019 A 0.2475 0.12603 135.97541 0 1 -2.27595 -6.58525 A 0.2475 0.12603 135.97541 0 1 -2.63187 -6.24124 A 0.2475 0.12603 135.97541 0 1 -2.41424 -6.59019 Z" />
    <path d="M 12.79623 5.26163 L -3.10021 11.85045" />
    <path d="M -2.60832 13.30098 L 13.60796 6.57959" />
    <path d="M 12.33005 1.06702 L -1.78597 6.91789" />
    <path d="M -2.44208 8.45344 L 12.24617 2.36539" />
    <path d="M -1.80344 7.70182 A 0.2475 0.09487 142.58344 0 1 -1.67163 7.69909 A 0.2475 0.09487 142.58344 0 1 -2.06478 7.99986 A 0.2475 0.09487 142.58344 0 1 -1.80344 7.70182 Z" />
    <path d="M -0.6256 7.21362 A 0.2475 0.09487 142.58344 0 1 -0.4938 7.2109 A 0.2475 0.09487 142.58344 0 1 -0.88695 7.51167 A 0.2475 0.09487 142.58344 0 1 -0.6256 7.21362 Z" />
    <path d="M 0.55223 6.72543 A 0.2475 0.09487 142.58344 0 1 0.68403 6.72271 A 0.2475 0.09487 142.58344 0 1 0.29088 7.02347 A 0.2475 0.09487 142.58344 0 1 0.55223 6.72543 Z" />
    <path d="M 1.73006 6.23724 A 0.2475 0.09487 142.58344 0 1 1.86186 6.23452 A 0.2475 0.09487 142.58344 0 1 1.46871 6.53528 A 0.2475 0.09487 142.58344 0 1 1.73006 6.23724 Z" />
    <path d="M 2.90789 5.74905 A 0.2475 0.09487 142.58344 0 1 3.03969 5.74632 A 0.2475 0.09487 142.58344 0 1 2.64655 6.04709 A 0.2475 0.09487 142.58344 0 1 2.90789 5.74905 Z" />
    <path d="M 4.08572 5.26086 A 0.2475 0.09487 142.58344 0 1 4.21752 5.25813 A 0.2475 0.09487 142.58344 0 1 3.82438 5.5589 A 0.2475 0.09487 142.58344 0 1 4.08572 5.26086 Z" />
    <path d="M 5.26355 4.77266 A 0.2475 0.09487 142.58344 0 1 5.39536 4.76994 A 0.2475 0.09487 142.58344 0 1 5.00221 5.0707 A 0.2475 0.09487 142.58344 0 1 5.26355 4.77266 Z" />
    <path d="M 6.44138 4.28447 A 0.2475 0.09487 142.58344 0 1 6.57319 4.28175 A 0.2475 0.09487 142.58344 0 1 6.18004 4.58251 A 0.2475 0.09487 142.58344 0 1 6.44138 4.28447 Z" />
    <path d="M 7.61921 3.79628 A 0.2475 0.09487 142.58344 0 1 7.75102 3.79356 A 0.2475 0.09487 142.58344 0 1 7.35787 4.09432 A 0.2475 0.09487 142.58344 0 1 7.61921 3.79628 Z" />
    <path d="M 8.79704 3.30809 A 0.2475 0.09487 142.58344 0 1 8.92885 3.30536 A 0.2475 0.09487 142.58344 0 1 8.5357 3.60613 A 0.2475 0.09487 142.58344 0 1 8.79704 3.30809 Z" />
    <path d="M 9.97487 2.81989 A 0.2475 0.09487 142.58344 0 1 10.10668 2.81717 A 0.2475 0.09487 142.58344 0 1 9.71353 3.11794 A 0.2475 0.09487 142.58344 0 1 9.97487 2.81989 Z" />
    <path d="M 16.97417 -7.32248 L 0.48597 -0.48839" />
    <path d="M 0.84281 0.62732 L 16.89029 -6.02411" />
    <path d="M 2.84068 -0.68769 A 0.2475 0.09487 142.58344 0 1 2.97249 -0.69041 A 0.2475 0.09487 142.58344 0 1 2.57934 -0.38965 A 0.2475 0.09487 142.58344 0 1 2.84068 -0.68769 Z" />
    <path d="M 4.01852 -1.17588 A 0.2475 0.09487 142.58344 0 1 4.15032 -1.1786 A 0.2475 0.09487 142.58344 0 1 3.75717 -0.87784 A 0.2475 0.09487 142.58344 0 1 4.01852 -1.17588 Z" />
    <path d="M 5.19635 -1.66407 A 0.2475 0.09487 142.58344 0 1 5.32815 -1.66679 A 0.2475 0.09487 142.58344 0 1 4.935 -1.36603 A 0.2475 0.09487 142.58344 0 1 5.19635 -1.66407 Z" />
    <path d="M 6.37418 -2.15226 A 0.2475 0.09487 142.58344 0 1 6.50598 -2.15499 A 0.2475 0.09487 142.58344 0 1 6.11283 -1.85422 A 0.2475 0.09487 142.58344 0 1 6.37418 -2.15226 Z" />
    <path d="M 7.55201 -2.64046 A 0.2475 0.09487 142.58344 0 1 7.68381 -2.64318 A 0.2475 0.09487 142.58344 0 1 7.29067 -2.34241 A 0.2475 0.09487 142.58344 0 1 7.55201 -2.64046 Z" />
    <path d="M 8.72984 -3.12865 A 0.2475 0.09487 142.58344 0 1 8.86164 -3.13137 A 0.2475 0.09487 142.58344 0 1 8.4685 -2.83061 A 0.2475 0.09487 142.58344 0 1 8.72984 -3.12865 Z" />
    <path d="M 9.90767 -3.61684 A 0.2475 0.09487 142.58344 0 1 10.03948 -3.61956 A 0.2475 0.09487 142.58344 0 1 9.64633 -3.3188 A 0.2475 0.09487 142.58344 0 1 9.90767 -3.61684 Z" />
    <path d="M 11.0855 -4.10503 A 0.2475 0.09487 142.58344 0 1 11.21731 -4.10776 A 0.2475 0.09487 142.58344 0 1 10.82416 -3.80699 A 0.2475 0.09487 142.58344 0 1 11.0855 -4.10503 Z" />
    <path d="M 12.26333 -4.59322 A 0.2475 0.09487 142.58344 0 1 12.39514 -4.59595 A 0.2475 0.09487 142.58344 0 1 12.00199 -4.29518 A 0.2475 0.09487 142.58344 0 1 12.26333 -4.59322 Z" />
    <path d="M 13.44116 -5.08142 A 0.2475 0.09487 142.58344 0 1 13.57297 -5.08414 A 0.2475 0.09487 142.58344 0 1 13.17982 -4.78338 A 0.2475 0.09487 142.58344 0 1 13.44116 -5.08142 Z" />
    <path d="M 14.61899 -5.56961 A 0.2475 0.09487 142.58344 0 1 14.7508 -5.57233 A 0.2475 0.09487 142.58344 0 1 14.35765 -5.27157 A 0.2475 0.09487 142.58344 0 1 14.61899 -5.56961 Z" />
    <path d="M 0.04646 -0.83854 C -0.01 -0.85 -0.1 -0.83 -0.10387 -0.81861 L -0.53574 -0.63961 L -0.96762 -0.4606 C -0.87 -0.49 -0.97 -0.47 -1.02357 -0.42961 C -1.08 -0.39 -2.31 1.61 -3.74516 4.01685 C -5.25 6.53 -6.42 8.44 -6.50035 8.5075 C -6.68 8.67 -6.97 8.67 -6.63146 8.58882 C -6.68 8.67 -6.97 8.67 -7.24238 8.52025 C -7.41 8.43 -8.26 7.65 -12.74145 3.51683 C -15.98 0.53 -18.08 -1.39 -18.13134 -1.41025 C -18.25 -1.46 -18.4 -1.41 -18.33225 -1.4077 C -18.25 -1.46 -18.4 -1.41 -18.45111 -1.29994 C -18.53 -1.14 -18.58 -0.7 -18.5355 -0.50367 C -18.51 -0.36 -18.32 0.06 -18.26642 0.09508 C -18.26 0.1 -17.8 0.55 -17.24704 1.10247 C -16.56 1.78 -16.19 2.17 -16.08442 2.32124 C -15.88 2.6 -15.69 3.02 -15.58787 3.3988 C -15.52 3.66 -15.5 3.76 -15.50497 4.09391 L -15.5065 4.48531 L -16.10002 6.42645 C -16.43 7.49 -16.69 8.43 -16.69355 8.50963 C -16.69 8.61 -16.66 8.71 -16.58565 8.87182 L -16.47774 9.09199 L -16.09423 9.3476 C -15.72 9.6 -15.71 9.6 -15.65954 9.56737 C -15.72 9.6 -15.71 9.6 -15.61884 9.54455 C -15.57 9.51 -14.92 8.71 -14.18531 7.77199 C -13.45 6.83 -12.8 6.04 -12.74354 6.01989 C -13.45 6.83 -12.8 6.04 -12.74324 6.01977 C -12.61 5.97 -12.4 6.01 -12.23051 6.12376 C -12.1 6.21 -6.13 12.11 -5.98256 12.28945 C -5.95 12.33 -5.25 13.63 -4.42383 15.17442 C -3.6 16.72 -2.89 18.03 -2.85375 18.10054 C -2.8 18.19 -2.7 18.27 -2.45521 18.43816 C -2.15 18.64 -2.12 18.65 -2.05564 18.61614 C -2.15 18.64 -2.12 18.65 -2.03491 18.60666 C -1.91 18.55 -1.88 18.35 -1.94426 18.10694 C -1.97 18.01 -2.46 16.59 -3.0303 14.94073 C -3.6 13.29 -4.09 11.85 -4.11634 11.73356 C -4.18 11.47 -4.18 10.95 -4.12743 10.76152 C -4.1 10.68 -3.17 8.49 -2.05397 5.88663 C -0.21 1.6 -0.02 1.13 -0.0104 0.90461 C 0 0.7 -0.01 0.61 -0.07077 0.42989 C -0.21 0.01 -0.56 -0.42 -0.81728 -0.48053 C -0.87 -0.49 -0.97 -0.47 -0.96762 -0.4606" />
    <path d="M -6.29519 8.20371 C -5.82 8.31 -6.11 8.31 -6.37863 8.16224 L -6.8105 8.34125 C -6.98 8.25 -7.83 7.47 -12.30957 3.33782 L -12.74145 3.51683" />
    <path d="M -6.37863 8.16224 C -6.55 8.07 -7.4 7.29 -11.8777 3.15882 L -12.30957 3.33782 C -15.55 0.35 -17.64 -1.57 -17.69946 -1.58926 L -18.13134 -1.41025" />
    <path d="M -11.8777 3.15882 C -15.11 0.17 -17.21 -1.75 -17.26759 -1.76826 L -17.69946 -1.58926 C -17.82 -1.64 -17.97 -1.59 -17.90038 -1.58671 L -18.33225 -1.4077" />
    <path d="M -17.26759 -1.76826 C -17.39 -1.82 -17.53 -1.77 -17.46851 -1.76571 L -17.90038 -1.58671" />
    <path d="M -14.7958 9.20936 C -14.86 9.24 -14.84 9.24 -14.75509 9.18655 L -15.18697 9.36555 C -15.14 9.33 -14.49 8.54 -13.75344 7.59298 L -14.18531 7.77199" />
    <path d="M -14.75509 9.18655 C -14.7 9.15 -14.06 8.36 -13.32157 7.41398 L -13.75344 7.59298 C -13.02 6.65 -12.37 5.86 -12.47736 6.01515" />
    <path d="M -13.32157 7.41398 C -12.58 6.47 -11.93 5.68 -12.26836 6.10007" />
    <path d="M -1.1919 18.25813 C -1.29 18.28 -1.26 18.29 -1.17117 18.24865 L -1.60304 18.42766 C -1.48 18.37 -1.44 18.17 -1.51239 17.92794 L -1.94426 18.10694" />
    <path d="M -1.17117 18.24865 C -1.05 18.19 -1.01 17.99 -1.08051 17.74893 L -1.51239 17.92794 C -1.54 17.83 -2.03 16.41 -2.59843 14.76173 L -3.0303 14.94073" />
    <path d="M -1.08051 17.74893 C -1.11 17.65 -1.6 16.23 -2.16656 14.58272 L -2.59843 14.76173 C -3.17 13.11 -3.66 11.67 -3.68447 11.55456 L -4.11634 11.73356" />
    <path d="M -2.16656 14.58272 C -2.74 12.94 -3.23 11.49 -3.2526 11.37555 L -3.68447 11.55456 C -3.75 11.29 -3.75 10.77 -3.69556 10.58251 L -4.12743 10.76152" />
    <path d="M -3.2526 11.37555 C -3.31 11.11 -3.32 10.59 -3.26369 10.40351 L -3.69556 10.58251 C -3.67 10.5 -2.74 8.31 -1.6221 5.70763 L -2.05397 5.88663" />
    <path d="M -3.26369 10.40351 C -3.24 10.32 -2.31 8.13 -1.19022 5.52862 L -1.6221 5.70763 C 0.22 1.42 0.41 0.96 0.42147 0.72561 L -0.0104 0.90461" />
    <path d="M -1.19022 5.52862 C 0.65 1.24 0.84 0.78 0.85334 0.5466 L 0.42147 0.72561 C 0.43 0.52 0.42 0.43 0.3611 0.25088 L -0.07077 0.42989" />
    <path d="M 0.85334 0.5466 C 0.86 0.34 0.85 0.25 0.79297 0.07188 L 0.3611 0.25088 C 0.22 -0.16 -0.13 -0.6 -0.38541 -0.65954 L -0.81728 -0.48053" />
    <path d="M 0.79297 0.07188 C 0.66 -0.34 0.3 -0.78 0.04646 -0.83854 L -0.38541 -0.65954 C -0.44 -0.67 -0.53 -0.65 -0.53574 -0.63961" />
    <path d="M -6.45646 8.44987 C -6.25 8.49 -6.54 8.49 -6.8105 8.34125 L -7.24238 8.52025" />
    <path d="M -1.62377 18.43713 C -1.72 18.46 -1.69 18.47 -1.60304 18.42766 L -2.03491 18.60666" />
    <path d="M -15.22767 9.38837 C -15.29 9.42 -15.28 9.42 -15.18697 9.36555 L -15.61884 9.54455" />
    <path d="M -13.00956 4.25099 A 0.2475 0.13038 247.48677 0 1 -12.95389 4.1628 A 0.2475 0.13038 247.48677 0 1 -12.76435 4.62008 A 0.2475 0.13038 247.48677 0 1 -13.00956 4.25099 Z" />
    <path d="M -12.40172 4.81845 A 0.2475 0.13038 247.48677 0 1 -12.34605 4.73026 A 0.2475 0.13038 247.48677 0 1 -12.15651 5.18753 A 0.2475 0.13038 247.48677 0 1 -12.40172 4.81845 Z" />
    <path d="M -11.79388 5.38591 A 0.2475 0.13038 247.48677 0 1 -11.73821 5.29772 A 0.2475 0.13038 247.48677 0 1 -11.54867 5.75499 A 0.2475 0.13038 247.48677 0 1 -11.79388 5.38591 Z" />
    <path d="M -11.18604 5.95337 A 0.2475 0.13038 247.48677 0 1 -11.13037 5.86517 A 0.2475 0.13038 247.48677 0 1 -10.94084 6.32245 A 0.2475 0.13038 247.48677 0 1 -11.18604 5.95337 Z" />
    <path d="M -10.5782 6.52083 A 0.2475 0.13038 247.48677 0 1 -10.52253 6.43263 A 0.2475 0.13038 247.48677 0 1 -10.333 6.88991 A 0.2475 0.13038 247.48677 0 1 -10.5782 6.52083 Z" />
    <path d="M -9.97036 7.08828 A 0.2475 0.13038 247.48677 0 1 -9.91469 7.00009 A 0.2475 0.13038 247.48677 0 1 -9.72516 7.45737 A 0.2475 0.13038 247.48677 0 1 -9.97036 7.08828 Z" />
    <path d="M -16.6566 0.84624 A 0.2475 0.13038 247.48677 0 1 -16.60092 0.75805 A 0.2475 0.13038 247.48677 0 1 -16.41139 1.21533 A 0.2475 0.13038 247.48677 0 1 -16.6566 0.84624 Z" />
    <path d="M -16.04876 1.4137 A 0.2475 0.13038 247.48677 0 1 -15.99308 1.32551 A 0.2475 0.13038 247.48677 0 1 -15.80355 1.78279 A 0.2475 0.13038 247.48677 0 1 -16.04876 1.4137 Z" />
    <path d="M -15.44092 1.98116 A 0.2475 0.13038 247.48677 0 1 -15.38524 1.89297 A 0.2475 0.13038 247.48677 0 1 -15.19571 2.35024 A 0.2475 0.13038 247.48677 0 1 -15.44092 1.98116 Z" />
    <path d="M -14.83308 2.54862 A 0.2475 0.13038 247.48677 0 1 -14.77741 2.46043 A 0.2475 0.13038 247.48677 0 1 -14.58787 2.9177 A 0.2475 0.13038 247.48677 0 1 -14.83308 2.54862 Z" />
    <path d="M -14.22524 3.11608 A 0.2475 0.13038 247.48677 0 1 -14.16957 3.02788 A 0.2475 0.13038 247.48677 0 1 -13.98003 3.48516 A 0.2475 0.13038 247.48677 0 1 -14.22524 3.11608 Z" />
    <path d="M -13.6174 3.68353 A 0.2475 0.13038 247.48677 0 1 -13.56173 3.59534 A 0.2475 0.13038 247.48677 0 1 -13.37219 4.05262 A 0.2475 0.13038 247.48677 0 1 -13.6174 3.68353 Z" />
    <path d="M -9.36253 7.65574 A 0.2475 0.13038 247.48677 0 1 -9.30685 7.56755 A 0.2475 0.13038 247.48677 0 1 -9.11732 8.02483 A 0.2475 0.13038 247.48677 0 1 -9.36253 7.65574 Z" />
    <path d="M -8.75469 8.2232 A 0.2475 0.13038 247.48677 0 1 -8.69901 8.13501 A 0.2475 0.13038 247.48677 0 1 -8.50948 8.59228 A 0.2475 0.13038 247.48677 0 1 -8.75469 8.2232 Z" />
    <path d="M -7.53901 9.35812 A 0.2475 0.13038 247.48677 0 1 -7.48333 9.26992 A 0.2475 0.13038 247.48677 0 1 -7.2938 9.7272 A 0.2475 0.13038 247.48677 0 1 -7.53901 9.35812 Z" />
    <path d="M -8.14685 8.79066 A 0.2475 0.13038 247.48677 0 1 -8.09117 8.70247 A 0.2475 0.13038 247.48677 0 1 -7.90164 9.15974 A 0.2475 0.13038 247.48677 0 1 -8.14685 8.79066 Z" />
    <path d="M -4.71842 7.90587 A 0.2475 0.13038 247.48677 0 1 -4.73889 7.5426 A 0.2475 0.13038 247.48677 0 1 -4.54935 7.99988 A 0.2475 0.13038 247.48677 0 1 -4.71842 7.90587 Z" />
    <path d="M -4.41822 7.3619 A 0.2475 0.13038 247.48677 0 1 -4.43869 6.99862 A 0.2475 0.13038 247.48677 0 1 -4.24915 7.4559 A 0.2475 0.13038 247.48677 0 1 -4.41822 7.3619 Z" />
    <path d="M -4.11802 6.81792 A 0.2475 0.13038 247.48677 0 1 -4.13848 6.45464 A 0.2475 0.13038 247.48677 0 1 -3.94895 6.91192 A 0.2475 0.13038 247.48677 0 1 -4.11802 6.81792 Z" />
    <path d="M -3.81781 6.27394 A 0.2475 0.13038 247.48677 0 1 -3.83828 5.91067 A 0.2475 0.13038 247.48677 0 1 -3.64875 6.36794 A 0.2475 0.13038 247.48677 0 1 -3.81781 6.27394 Z" />
    <path d="M -3.51761 5.72996 A 0.2475 0.13038 247.48677 0 1 -3.53808 5.36669 A 0.2475 0.13038 247.48677 0 1 -3.34855 5.82397 A 0.2475 0.13038 247.48677 0 1 -3.51761 5.72996 Z" />
    <path d="M -3.21741 5.18598 A 0.2475 0.13038 247.48677 0 1 -3.23788 4.82271 A 0.2475 0.13038 247.48677 0 1 -3.04834 5.27999 A 0.2475 0.13038 247.48677 0 1 -3.21741 5.18598 Z" />
    <path d="M -2.91721 4.64201 A 0.2475 0.13038 247.48677 0 1 -2.93768 4.27873 A 0.2475 0.13038 247.48677 0 1 -2.74814 4.73601 A 0.2475 0.13038 247.48677 0 1 -2.91721 4.64201 Z" />
    <path d="M -2.61701 4.09803 A 0.2475 0.13038 247.48677 0 1 -2.63747 3.73476 A 0.2475 0.13038 247.48677 0 1 -2.44794 4.19203 A 0.2475 0.13038 247.48677 0 1 -2.61701 4.09803 Z" />
    <path d="M -2.3168 3.55405 A 0.2475 0.13038 247.48677 0 1 -2.33727 3.19078 A 0.2475 0.13038 247.48677 0 1 -2.14774 3.64806 A 0.2475 0.13038 247.48677 0 1 -2.3168 3.55405 Z" />
    <path d="M -2.0166 3.01007 A 0.2475 0.13038 247.48677 0 1 -2.03707 2.6468 A 0.2475 0.13038 247.48677 0 1 -1.84754 3.10408 A 0.2475 0.13038 247.48677 0 1 -2.0166 3.01007 Z" />
    <path d="M -1.7164 2.4661 A 0.2475 0.13038 247.48677 0 1 -1.73687 2.10282 A 0.2475 0.13038 247.48677 0 1 -1.54733 2.5601 A 0.2475 0.13038 247.48677 0 1 -1.7164 2.4661 Z" />
    <path d="M -1.4162 1.92212 A 0.2475 0.13038 247.48677 0 1 -1.43667 1.55885 A 0.2475 0.13038 247.48677 0 1 -1.24713 2.01612 A 0.2475 0.13038 247.48677 0 1 -1.4162 1.92212 Z" />
    <path d="M 11.32809 0.82309 L 10.89622 1.00209 L 10.46435 1.18109" />
    <path d="M 5.82902 -4.18034 L 5.39715 -4.00133 L 4.96528 -3.82233" />
    <path d="M 0.43913 -9.10742 L 0.00726 -8.92841 L -0.42461 -8.74941" />
    <path d="M 16.51483 10.91897 L 16.08295 11.09798 L 15.65108 11.27698" />
    <path d="M 2.91093 1.8702 L 2.47906 2.04921 L 2.04719 2.22821" />
    <path d="M -1.1919 18.25813 L -1.62377 18.43713 L -2.05564 18.61614" />
    <path d="M -14.7958 9.20936 L -15.22767 9.38837 L -15.65954 9.56737" />
</svg>