<svg version="1.1" xmlns="http://www.w3.org/2000/svg" viewBox="-19.57655125207619 -10.133506141693609 39.14709140108327 29.781065652624836" fill="none" stroke="black" stroke-width="0.6%" vector-effect="non-scaling-stroke">
    <path d="M 17.75324 -8.17776 C 17.7 -8.19 17.6 -8.17 17.6029 -8.15783 L 17.17103 -7.97882 L 16.73916 -7.79981 C 16.83 -7.83 16.74 -7.81 16.68322 -7.76882 C 16.63 -7.73 15.4 -5.73 16.1891 -6.9971" />
    <path d="M 17.32137 -7.99875 C 17.26 -8.01 17.17 -7.99 17.17103 -7.97882" />
    <path d="M 18.49976 -7.26734 C 18.36 -7.68 18.01 -8.11 17.75324 -8.17776 L 17.32137 -7.99875 L 16.88951 -7.81974 C 16.83 -7.83 16.74 -7.81 16.73916 -7.79981" />
    <path d="M 18.0679 -7.08833 C 17.93 -7.5 17.58 -7.94 17.32137 -7.99875" />
    <path d="M 18.56014 -6.79262 C 18.57 -7 18.56 -7.09 18.49976 -7.26734 L 18.0679 -7.08833 L 17.63603 -6.90932 C 17.5 -7.33 17.15 -7.76 16.88951 -7.81974" />
    <path d="M 16.51653 -1.81064 C 18.36 -6.1 18.55 -6.56 18.56014 -6.79262 L 18.12827 -6.61361 C 18.14 -6.82 18.13 -6.91 18.0679 -7.08833" />
    <path d="M 11.4115 0.86441 C 11.89 0.97 11.6 0.97 11.32802 0.82294 C 11.16 0.73 10.31 -0.05 7.87928 -2.28905" />
    <path d="M 14.44302 3.06421 C 14.47 2.98 15.4 0.79 16.51653 -1.81064 L 16.08466 -1.63163 C 17.93 -5.92 18.12 -6.38 18.12827 -6.61361 L 17.6964 -6.4346 C 17.71 -6.64 17.7 -6.73 17.63603 -6.90932" />
    <path d="M 6.93385 -3.16076 C 11.16 0.73 10.31 -0.05 5.82884 -4.18049 C 2.59 -7.17 0.49 -9.09 0.43884 -9.10757 C 0.32 -9.16 0.17 -9.11 0.23792 -9.10501 L -0.19395 -8.926 L -0.62582 -8.74699 C -0.55 -8.8 -0.69 -8.75 -0.74467 -8.63924 C -0.82 -8.48 -0.87 -8.04 -0.84427 -8.04374" />
    <path d="M 14.45412 4.03625 C 14.39 3.77 14.39 3.25 14.44302 3.06421 L 14.01116 3.24322 C 14.03 3.16 14.97 0.97 16.08466 -1.63163 L 15.6528 -1.45262 C 17.49 -5.74 17.68 -6.21 17.6964 -6.4346" />
    <path d="M 15.54018 7.2434 C 14.97 5.6 14.48 4.15 14.45412 4.03625 L 14.02225 4.21526 C 13.96 3.95 13.96 3.43 14.01116 3.24322 L 13.57929 3.42223 C 13.6 3.34 14.54 1.15 15.6528 -1.45262" />
    <path d="M 16.62624 10.4096 C 16.6 10.32 16.11 8.89 15.54018 7.2434 L 15.10831 7.42241 C 14.54 5.78 14.05 4.33 14.02225 4.21526 L 13.59039 4.39427 C 13.53 4.13 13.52 3.61 13.57929 3.42223" />
    <path d="M 16.53559 10.90932 C 16.66 10.85 16.69 10.65 16.62624 10.4096 L 16.19438 10.58861 C 16.17 10.49 15.68 9.07 15.10831 7.42241 L 14.67645 7.60142 C 14.11 5.95 13.62 4.51 13.59039 4.39427" />
    <path d="M 16.51486 10.91879 C 16.42 10.94 16.45 10.95 16.53559 10.90932 L 16.10372 11.08833 C 16.23 11.03 16.26 10.83 16.19438 10.58861 L 15.76251 10.76762 C 15.74 10.67 15.25 9.25 14.67645 7.60142" />
    <path d="M 4.38494 0.07464 C 5.12 -0.87 5.77 -1.66 5.43818 -1.23925" />
    <path d="M 2.95139 1.84719 C 3 1.81 3.65 1.02 4.38494 0.07464 L 3.95308 0.25365 C 4.69 -0.69 5.34 -1.48 5.05451 -1.11817" />
    <path d="M 2.91069 1.87 C 2.85 1.9 2.86 1.9 2.95139 1.84719 L 2.51953 2.0262 C 2.57 1.99 3.22 1.2 3.95308 0.25365 L 3.52121 0.43266 C 4.26 -0.51 4.91 -1.3 4.62264 -0.93916" />
    <path d="M 15.15583 -5.30521 C 16.63 -7.73 15.4 -5.73 13.96158 -3.3224 C 12.45 -0.81 11.29 1.1 11.20633 1.16821 C 11.03 1.33 10.73 1.33 11.07523 1.24952 C 11.03 1.33 10.73 1.33 10.46429 1.18096 C 10.3 1.09 9.44 0.31 7.01554 -1.93103" />
    <path d="M 11.25022 1.11058 C 11.46 1.15 11.17 1.15 10.89615 1.00195 C 10.73 0.91 9.88 0.13 7.44741 -2.11004" />
    <path d="M 6.50199 -2.98175 C 10.73 0.91 9.88 0.13 5.39697 -4.00148 C 2.16 -6.99 0.06 -8.91 0.00698 -8.92856 C -0.11 -8.98 -0.26 -8.93 -0.19395 -8.926" />
    <path d="M 16.083 11.0978 C 15.98 11.12 16.01 11.13 16.10372 11.08833 L 15.67186 11.26734 C 15.79 11.21 15.83 11.01 15.76251 10.76762" />
    <path d="M 2.20153 -3.2454 L 2.2 -2.85401 L 1.62035 -0.9583" />
    <path d="M 2.47883 2.04902 C 2.42 2.08 2.43 2.08 2.51953 2.0262 L 2.08766 2.20521 C 2.14 2.17 2.78 1.38 3.52121 0.43266" />
    <path d="M 1.12083 1.53248 L 1.22874 1.75264 L 1.61225 2.00826 C 1.99 2.26 2 2.26 2.04696 2.22803 C 1.99 2.26 2 2.26 2.08766 2.20521" />
    <path d="M 1.04988 -6.49306 A 0.2475 0.13038 247.48582 0 1 1.10555 -6.58125 A 0.2475 0.13038 247.48582 0 1 1.29509 -6.12397 A 0.2475 0.13038 247.48582 0 1 1.04988 -6.49306 Z" />
    <path d="M 1.65773 -5.9256 A 0.2475 0.13038 247.48582 0 1 1.7134 -6.01379 A 0.2475 0.13038 247.48582 0 1 1.90294 -5.55652 A 0.2475 0.13038 247.48582 0 1 1.65773 -5.9256 Z" />
    <path d="M 2.26558 -5.35814 A 0.2475 0.13038 247.48582 0 1 2.32125 -5.44633 A 0.2475 0.13038 247.48582 0 1 2.5108 -4.98906 A 0.2475 0.13038 247.48582 0 1 2.26558 -5.35814 Z" />
    <path d="M 2.87343 -4.79068 A 0.2475 0.13038 247.48582 0 1 2.92911 -4.87887 A 0.2475 0.13038 247.48582 0 1 3.11865 -4.4216 A 0.2475 0.13038 247.48582 0 1 2.87343 -4.79068 Z" />
    <path d="M 3.48128 -4.22322 A 0.2475 0.13038 247.48582 0 1 3.53696 -4.31141 A 0.2475 0.13038 247.48582 0 1 3.7265 -3.85414 A 0.2475 0.13038 247.48582 0 1 3.48128 -4.22322 Z" />
    <path d="M 4.08914 -3.65577 A 0.2475 0.13038 247.48582 0 1 4.14481 -3.74396 A 0.2475 0.13038 247.48582 0 1 4.33435 -3.28668 A 0.2475 0.13038 247.48582 0 1 4.08914 -3.65577 Z" />
    <path d="M 4.69699 -3.08831 A 0.2475 0.13038 247.48582 0 1 4.75266 -3.1765 A 0.2475 0.13038 247.48582 0 1 4.9422 -2.71922 A 0.2475 0.13038 247.48582 0 1 4.69699 -3.08831 Z" />
    <path d="M 5.30484 -2.52085 A 0.2475 0.13038 247.48582 0 1 5.36051 -2.60904 A 0.2475 0.13038 247.48582 0 1 5.49005 -2.5623" />
    <path d="M 5.30203 -2.48437 A 0.2475 0.13038 247.48582 0 1 5.30484 -2.52085" />
    <path d="M 6.52054 -1.38593 A 0.2475 0.13038 247.48582 0 1 6.57621 -1.47412 A 0.2475 0.13038 247.48582 0 1 6.76576 -1.01685 A 0.2475 0.13038 247.48582 0 1 6.52054 -1.38593 Z" />
    <path d="M 8.3441 0.31644 A 0.2475 0.13038 247.48582 0 1 8.39977 0.22825 A 0.2475 0.13038 247.48582 0 1 8.58931 0.68553 A 0.2475 0.13038 247.48582 0 1 8.3441 0.31644 Z" />
    <path d="M 7.12839 -0.81847 A 0.2475 0.13038 247.48582 0 1 7.18407 -0.90666 A 0.2475 0.13038 247.48582 0 1 7.37361 -0.44939 A 0.2475 0.13038 247.48582 0 1 7.12839 -0.81847 Z" />
    <path d="M 7.73624 -0.25102 A 0.2475 0.13038 247.48582 0 1 7.79192 -0.33921 A 0.2475 0.13038 247.48582 0 1 7.98146 0.11807 A 0.2475 0.13038 247.48582 0 1 7.73624 -0.25102 Z" />
    <path d="M 9.5598 1.45136 A 0.2475 0.13038 247.48582 0 1 9.61547 1.36317 A 0.2475 0.13038 247.48582 0 1 9.80501 1.82044 A 0.2475 0.13038 247.48582 0 1 9.5598 1.45136 Z" />
    <path d="M 8.95195 0.8839 A 0.2475 0.13038 247.48582 0 1 9.00762 0.79571 A 0.2475 0.13038 247.48582 0 1 9.19716 1.25298 A 0.2475 0.13038 247.48582 0 1 8.95195 0.8839 Z" />
    <path d="M 10.19489 1.95191 A 0.2475 0.13038 247.48582 0 1 10.22332 1.93063 A 0.2475 0.13038 247.48582 0 1 10.25848 1.92556" />
    <path d="M 12.98829 0.5666 A 0.2475 0.13038 247.48582 0 1 12.96782 0.20333 A 0.2475 0.13038 247.48582 0 1 13.15737 0.6606 A 0.2475 0.13038 247.48582 0 1 12.98829 0.5666 Z" />
    <path d="M 13.2885 0.02262 A 0.2475 0.13038 247.48582 0 1 13.26803 -0.34065 A 0.2475 0.13038 247.48582 0 1 13.45757 0.11663 A 0.2475 0.13038 247.48582 0 1 13.2885 0.02262 Z" />
    <path d="M 13.58871 -0.52135 A 0.2475 0.13038 247.48582 0 1 13.56824 -0.88462 A 0.2475 0.13038 247.48582 0 1 13.75778 -0.42735 A 0.2475 0.13038 247.48582 0 1 13.58871 -0.52135 Z" />
    <path d="M 13.88892 -1.06532 A 0.2475 0.13038 247.48582 0 1 13.86845 -1.42859 A 0.2475 0.13038 247.48582 0 1 14.05799 -0.97132 A 0.2475 0.13038 247.48582 0 1 13.88892 -1.06532 Z" />
    <path d="M 14.18912 -1.6093 A 0.2475 0.13038 247.48582 0 1 14.16866 -1.97257 A 0.2475 0.13038 247.48582 0 1 14.3582 -1.51529 A 0.2475 0.13038 247.48582 0 1 14.18912 -1.6093 Z" />
    <path d="M 14.48933 -2.15327 A 0.2475 0.13038 247.48582 0 1 14.46886 -2.51654 A 0.2475 0.13038 247.48582 0 1 14.6584 -2.05927 A 0.2475 0.13038 247.48582 0 1 14.48933 -2.15327 Z" />
    <path d="M 14.78954 -2.69724 A 0.2475 0.13038 247.48582 0 1 14.76907 -3.06051 A 0.2475 0.13038 247.48582 0 1 14.95861 -2.60324 A 0.2475 0.13038 247.48582 0 1 14.78954 -2.69724 Z" />
    <path d="M 15.08975 -3.24122 A 0.2475 0.13038 247.48582 0 1 15.06928 -3.60449 A 0.2475 0.13038 247.48582 0 1 15.25882 -3.14721 A 0.2475 0.13038 247.48582 0 1 15.08975 -3.24122 Z" />
    <path d="M 15.38996 -3.78519 A 0.2475 0.13038 247.48582 0 1 15.36949 -4.14846 A 0.2475 0.13038 247.48582 0 1 15.55903 -3.69119 A 0.2475 0.13038 247.48582 0 1 15.38996 -3.78519 Z" />
    <path d="M 15.69016 -4.32916 A 0.2475 0.13038 247.48582 0 1 15.66969 -4.69243 A 0.2475 0.13038 247.48582 0 1 15.85924 -4.23516 A 0.2475 0.13038 247.48582 0 1 15.69016 -4.32916 Z" />
    <path d="M 15.99037 -4.87313 A 0.2475 0.13038 247.48582 0 1 15.9699 -5.2364 A 0.2475 0.13038 247.48582 0 1 16.15944 -4.77913 A 0.2475 0.13038 247.48582 0 1 15.99037 -4.87313 Z" />
    <path d="M 16.29058 -5.41711 A 0.2475 0.13038 247.48582 0 1 16.23734 -5.75349" />
    <path d="M 16.31229 -5.78456 A 0.2475 0.13038 247.48582 0 1 16.45965 -5.3231 A 0.2475 0.13038 247.48582 0 1 16.29058 -5.41711" />
    <path d="M 6.07012 -2.80274 C 10.3 1.09 9.44 0.31 4.96511 -3.82247 C 1.73 -6.81 -0.37 -8.73 -0.42489 -8.74955 C -0.55 -8.8 -0.69 -8.75 -0.62582 -8.74699" />
    <path d="M -0.17955 -6.86982 C -0.55 -7.24 -0.09 -6.79 0.45942 -6.23684 C 1.14 -5.56 1.52 -5.17 1.62207 -5.01807 C 1.82 -4.73 2.01 -4.32 2.11863 -3.94051 C 2.19 -3.68 2.2 -3.58 2.20153 -3.2454" />
    <path d="M 1.19211 0.48281 C 1.28 0.15 1.01 1.09 1.01292 1.17029 C 1.01 1.27 1.04 1.37 1.12083 1.53248" />
    <path d="M 5.3988 -1.26088 C 5.1 -1.37 5.31 -1.33 5.47606 -1.21554 C 5.6 -1.13 11.58 4.77 9.15379 2.38345" />
    <path d="M 10.05346 3.27414 C 5.6 -1.13 11.58 4.77 11.72412 4.95014 C 11.76 4.99 12.46 6.29 12.06421 5.5649" />
    <path d="M 12.79247 6.91747 C 11.76 4.99 12.46 6.29 13.28289 7.83511 C 14.11 9.38 14.81 10.69 14.853 10.76122 C 14.91 10.86 15 10.93 15.25155 11.09883 C 15.55 11.3 15.58 11.31 15.65113 11.27681 C 15.55 11.3 15.58 11.31 15.67186 11.26734" />
    <path d="M -0.13061 -8.33955 L 0.19836 -7.99919 L -16.49355 -1.08034" />
    <path d="M 0.19836 -7.99919 L -0.04204 -6.92682" />
    <path d="M 12.79621 5.26148 L 13.0752 5.17905 L -3.09029 11.8797" />
    <path d="M 13.0752 5.17905 L 13.60796 6.57944" />
    <path d="M 12.33003 1.06689 L 12.63869 1.47036 L -2.06205 7.56387" />
    <path d="M 12.63869 1.47036 L 12.24615 2.36526" />
    <path d="M 16.97424 -7.32254 L 17.2829 -6.91907 L 0.74166 -0.06267" />
    <path d="M 17.2829 -6.91907 L 16.89036 -6.02417" />
    <path d="M -0.13061 -8.33955 L -16.85497 -1.40725" />
    <path d="M -15.75996 -0.41168 L -0.04204 -6.92682" />
    <path d="M -14.19265 -1.70821 A 0.2475 0.12603 135.97483 0 1 -14.05435 -1.70327 A 0.2475 0.12603 135.97483 0 1 -14.41027 -1.35926 A 0.2475 0.12603 135.97483 0 1 -14.19265 -1.70821 Z" />
    <path d="M -13.01483 -2.19642 A 0.2475 0.12603 135.97483 0 1 -12.87654 -2.19148 A 0.2475 0.12603 135.97483 0 1 -13.23246 -1.84747 A 0.2475 0.12603 135.97483 0 1 -13.01483 -2.19642 Z" />
    <path d="M -11.83701 -2.68462 A 0.2475 0.12603 135.97483 0 1 -11.69872 -2.67969 A 0.2475 0.12603 135.97483 0 1 -12.05464 -2.33568 A 0.2475 0.12603 135.97483 0 1 -11.83701 -2.68462 Z" />
    <path d="M -10.6592 -3.17283 A 0.2475 0.12603 135.97483 0 1 -10.5209 -3.1679 A 0.2475 0.12603 135.97483 0 1 -10.87683 -2.82388 A 0.2475 0.12603 135.97483 0 1 -10.6592 -3.17283 Z" />
    <path d="M -9.48138 -3.66104 A 0.2475 0.12603 135.97483 0 1 -9.34309 -3.65611 A 0.2475 0.12603 135.97483 0 1 -9.69901 -3.31209 A 0.2475 0.12603 135.97483 0 1 -9.48138 -3.66104 Z" />
    <path d="M -8.30357 -4.14925 A 0.2475 0.12603 135.97483 0 1 -8.16527 -4.14432 A 0.2475 0.12603 135.97483 0 1 -8.52119 -3.8003 A 0.2475 0.12603 135.97483 0 1 -8.30357 -4.14925 Z" />
    <path d="M -7.12575 -4.63746 A 0.2475 0.12603 135.97483 0 1 -6.98745 -4.63252 A 0.2475 0.12603 135.97483 0 1 -7.34338 -4.28851 A 0.2475 0.12603 135.97483 0 1 -7.12575 -4.63746 Z" />
    <path d="M -5.94793 -5.12567 A 0.2475 0.12603 135.97483 0 1 -5.80964 -5.12073 A 0.2475 0.12603 135.97483 0 1 -6.16556 -4.77672 A 0.2475 0.12603 135.97483 0 1 -5.94793 -5.12567 Z" />
    <path d="M -4.77012 -5.61388 A 0.2475 0.12603 135.97483 0 1 -4.63182 -5.60894 A 0.2475 0.12603 135.97483 0 1 -4.98774 -5.26493 A 0.2475 0.12603 135.97483 0 1 -4.77012 -5.61388 Z" />
    <path d="M -3.5923 -6.10209 A 0.2475 0.12603 135.97483 0 1 -3.454 -6.09715 A 0.2475 0.12603 135.97483 0 1 -3.80993 -5.75314 A 0.2475 0.12603 135.97483 0 1 -3.5923 -6.10209 Z" />
    <path d="M -2.41448 -6.5903 A 0.2475 0.12603 135.97483 0 1 -2.27619 -6.58536 A 0.2475 0.12603 135.97483 0 1 -2.63211 -6.24135 A 0.2475 0.12603 135.97483 0 1 -2.41448 -6.5903 Z" />
    <path d="M 12.79621 5.26148 L -3.10001 11.85052" />
    <path d="M -2.60811 13.30106 L 13.60796 6.57944" />
    <path d="M 12.33003 1.06689 L -1.78569 6.91791" />
    <path d="M -2.44182 8.45347 L 12.24615 2.36526" />
    <path d="M -1.80328 7.70189 A 0.2475 0.09486 142.58285 0 1 -1.67148 7.69917 A 0.2475 0.09486 142.58285 1 1 -2.06462 7.99994 A 0.2475 0.09486 142.58285 0 1 -1.80328 7.70189 Z" />
    <path d="M -0.62547 7.21368 A 0.2475 0.09486 142.58285 0 1 -0.49366 7.21096 A 0.2475 0.09486 142.58285 1 1 -0.88681 7.51173 A 0.2475 0.09486 142.58285 0 1 -0.62547 7.21368 Z" />
    <path d="M 0.55235 6.72547 A 0.2475 0.09486 142.58285 0 1 0.68415 6.72275 A 0.2475 0.09486 142.58285 1 1 0.29101 7.02352 A 0.2475 0.09486 142.58285 0 1 0.55235 6.72547 Z" />
    <path d="M 1.73017 6.23727 A 0.2475 0.09486 142.58285 0 1 1.86197 6.23454 A 0.2475 0.09486 142.58285 1 1 1.46883 6.53531 A 0.2475 0.09486 142.58285 0 1 1.73017 6.23727 Z" />
    <path d="M 2.90798 5.74906 A 0.2475 0.09486 142.58285 0 1 3.03979 5.74633 A 0.2475 0.09486 142.58285 1 1 2.64664 6.0471 A 0.2475 0.09486 142.58285 0 1 2.90798 5.74906 Z" />
    <path d="M 4.0858 5.26085 A 0.2475 0.09486 142.58285 0 1 4.2176 5.25812 A 0.2475 0.09486 142.58285 1 1 3.82446 5.55889 A 0.2475 0.09486 142.58285 0 1 4.0858 5.26085 Z" />
    <path d="M 5.26362 4.77264 A 0.2475 0.09486 142.58285 0 1 5.39542 4.76991 A 0.2475 0.09486 142.58285 1 1 5.00227 5.07068 A 0.2475 0.09486 142.58285 0 1 5.26362 4.77264 Z" />
    <path d="M 6.44143 4.28443 A 0.2475 0.09486 142.58285 0 1 6.57324 4.2817 A 0.2475 0.09486 142.58285 1 1 6.18009 4.58247 A 0.2475 0.09486 142.58285 0 1 6.44143 4.28443 Z" />
    <path d="M 7.61925 3.79622 A 0.2475 0.09486 142.58285 0 1 7.75105 3.79349 A 0.2475 0.09486 142.58285 1 1 7.35791 4.09426 A 0.2475 0.09486 142.58285 0 1 7.61925 3.79622 Z" />
    <path d="M 8.79707 3.30801 A 0.2475 0.09486 142.58285 0 1 8.92887 3.30528 A 0.2475 0.09486 142.58285 1 1 8.53572 3.60605 A 0.2475 0.09486 142.58285 0 1 8.79707 3.30801 Z" />
    <path d="M 9.97488 2.8198 A 0.2475 0.09486 142.58285 0 1 10.10669 2.81708 A 0.2475 0.09486 142.58285 1 1 9.71354 3.11784 A 0.2475 0.09486 142.58285 0 1 9.97488 2.8198 Z" />
    <path d="M 16.97424 -7.32254 L 0.48624 -0.48821" />
    <path d="M 0.8431 0.62747 L 16.89036 -6.02417" />
    <path d="M 2.84093 -0.68754 A 0.2475 0.09486 142.58285 0 1 2.97273 -0.69027 A 0.2475 0.09486 142.58285 1 1 2.57959 -0.3895 A 0.2475 0.09486 142.58285 0 1 2.84093 -0.68754 Z" />
    <path d="M 4.01875 -1.17575 A 0.2475 0.09486 142.58285 0 1 4.15055 -1.17847 A 0.2475 0.09486 142.58285 1 1 3.7574 -0.87771 A 0.2475 0.09486 142.58285 0 1 4.01875 -1.17575 Z" />
    <path d="M 5.19656 -1.66396 A 0.2475 0.09486 142.58285 0 1 5.32837 -1.66668 A 0.2475 0.09486 142.58285 1 1 4.93522 -1.36591 A 0.2475 0.09486 142.58285 0 1 5.19656 -1.66396 Z" />
    <path d="M 6.37438 -2.15217 A 0.2475 0.09486 142.58285 0 1 6.50618 -2.15489 A 0.2475 0.09486 142.58285 1 1 6.11304 -1.85412 A 0.2475 0.09486 142.58285 0 1 6.37438 -2.15217 Z" />
    <path d="M 7.5522 -2.64038 A 0.2475 0.09486 142.58285 0 1 7.684 -2.6431 A 0.2475 0.09486 142.58285 1 1 7.29085 -2.34233 A 0.2475 0.09486 142.58285 0 1 7.5522 -2.64038 Z" />
    <path d="M 8.73001 -3.12858 A 0.2475 0.09486 142.58285 0 1 8.86182 -3.13131 A 0.2475 0.09486 142.58285 1 1 8.46867 -2.83054 A 0.2475 0.09486 142.58285 0 1 8.73001 -3.12858 Z" />
    <path d="M 9.90783 -3.61679 A 0.2475 0.09486 142.58285 0 1 10.03963 -3.61952 A 0.2475 0.09486 142.58285 1 1 9.64649 -3.31875 A 0.2475 0.09486 142.58285 0 1 9.90783 -3.61679 Z" />
    <path d="M 11.08565 -4.105 A 0.2475 0.09486 142.58285 0 1 11.21745 -4.10773 A 0.2475 0.09486 142.58285 1 1 10.8243 -3.80696 A 0.2475 0.09486 142.58285 0 1 11.08565 -4.105 Z" />
    <path d="M 12.26346 -4.59321 A 0.2475 0.09486 142.58285 0 1 12.39527 -4.59594 A 0.2475 0.09486 142.58285 1 1 12.00212 -4.29517 A 0.2475 0.09486 142.58285 0 1 12.26346 -4.59321 Z" />
    <path d="M 13.44128 -5.08142 A 0.2475 0.09486 142.58285 0 1 13.57308 -5.08415 A 0.2475 0.09486 142.58285 1 1 13.17994 -4.78338 A 0.2475 0.09486 142.58285 0 1 13.44128 -5.08142 Z" />
    <path d="M 14.6191 -5.56963 A 0.2475 0.09486 142.58285 0 1 14.7509 -5.57236 A 0.2475 0.09486 142.58285 1 1 14.35775 -5.27159 A 0.2475 0.09486 142.58285 0 1 14.6191 -5.56963 Z" />
    <path d="M 0.04673 -0.83835 C -0.01 -0.85 -0.1 -0.83 -0.10361 -0.81842 L -0.53548 -0.63941 L -0.96734 -0.4604 C -0.87 -0.49 -0.97 -0.47 -1.02329 -0.42941 C -1.08 -0.39 -2.3 1.61 -3.74493 4.01701 C -5.25 6.53 -6.42 8.44 -6.50018 8.50762 C -6.68 8.67 -6.97 8.67 -6.63128 8.58893 C -6.68 8.67 -6.97 8.67 -7.24222 8.52037 C -7.41 8.43 -8.26 7.65 -12.7414 3.51694 C -15.98 0.53 -18.08 -1.39 -18.1314 -1.41014 C -18.25 -1.46 -18.4 -1.41 -18.33232 -1.40758 C -18.25 -1.46 -18.4 -1.41 -18.45117 -1.29983 C -18.53 -1.14 -18.58 -0.7 -18.53557 -0.50357 C -18.51 -0.36 -18.32 0.06 -18.26648 0.09518 C -18.26 0.1 -17.8 0.55 -17.24708 1.10257 C -16.56 1.78 -16.19 2.17 -16.08444 2.32134 C -15.88 2.6 -15.69 3.02 -15.58788 3.3989 C -15.52 3.66 -15.5 3.76 -15.50498 4.09401 L -15.50651 4.4854 L -16.10004 6.42654 C -16.43 7.49 -16.69 8.43 -16.69358 8.5097 C -16.69 8.61 -16.66 8.71 -16.58568 8.87189 L -16.47777 9.09205 L -16.09426 9.34767 C -15.72 9.6 -15.71 9.6 -15.65955 9.56744 C -15.72 9.6 -15.71 9.6 -15.61885 9.54462 C -15.57 9.51 -14.92 8.71 -14.1853 7.77207 C -13.45 6.83 -12.8 6.04 -12.74349 6.02 C -13.45 6.83 -12.8 6.04 -12.74319 6.01988 C -12.61 5.97 -12.4 6.01 -12.23045 6.12387 C -12.1 6.21 -6.13 12.11 -5.98238 12.28956 C -5.95 12.33 -5.25 13.63 -4.42362 15.17452 C -3.6 16.72 -2.89 18.03 -2.85351 18.10063 C -2.8 18.19 -2.7 18.27 -2.45496 18.43824 C -2.15 18.64 -2.12 18.65 -2.05538 18.61622 C -2.15 18.64 -2.12 18.65 -2.03465 18.60675 C -1.91 18.55 -1.88 18.35 -1.944 18.10703 C -1.97 18.01 -2.46 16.59 -3.03006 14.94083 C -3.6 13.29 -4.09 11.85 -4.11612 11.73368 C -4.18 11.47 -4.18 10.95 -4.12722 10.76164 C -4.1 10.68 -3.17 8.49 -2.05371 5.88679 C -0.21 1.6 -0.02 1.13 -0.0101 0.90481 C 0 0.7 -0.01 0.61 -0.07048 0.43009 C -0.21 0.01 -0.56 -0.42 -0.817 -0.48033 C -0.87 -0.49 -0.97 -0.47 -0.96734 -0.4604" />
    <path d="M -6.29501 8.20382 C -5.82 8.31 -6.11 8.31 -6.37849 8.16235 L -6.81035 8.34136 C -6.98 8.25 -7.83 7.47 -12.30953 3.33793 L -12.7414 3.51694" />
    <path d="M -6.37849 8.16235 C -6.55 8.07 -7.4 7.29 -11.87767 3.15892 L -12.30953 3.33793 C -15.55 0.35 -17.64 -1.57 -17.69953 -1.58915 L -18.1314 -1.41014" />
    <path d="M -11.87767 3.15892 C -15.11 0.17 -17.21 -1.75 -17.26766 -1.76816 L -17.69953 -1.58915 C -17.82 -1.64 -17.97 -1.59 -17.90046 -1.58659 L -18.33232 -1.40758" />
    <path d="M -17.26766 -1.76816 C -17.39 -1.82 -17.53 -1.77 -17.46859 -1.7656 L -17.90046 -1.58659" />
    <path d="M -14.79582 9.20942 C -14.86 9.24 -14.84 9.24 -14.75512 9.1866 L -15.18698 9.36561 C -15.14 9.33 -14.49 8.54 -13.75343 7.59306 L -14.1853 7.77207" />
    <path d="M -14.75512 9.1866 C -14.7 9.15 -14.06 8.36 -13.32156 7.41405 L -13.75343 7.59306 C -13.02 6.65 -12.37 5.86 -12.47733 6.01525" />
    <path d="M -13.32156 7.41405 C -12.58 6.47 -11.93 5.68 -12.26833 6.10016" />
    <path d="M -1.19165 18.2582 C -1.29 18.28 -1.26 18.29 -1.17092 18.24873 L -1.60279 18.42774 C -1.48 18.37 -1.44 18.17 -1.51213 17.92802 L -1.944 18.10703" />
    <path d="M -1.17092 18.24873 C -1.05 18.19 -1.01 17.99 -1.08026 17.74901 L -1.51213 17.92802 C -1.54 17.83 -2.03 16.41 -2.59819 14.76182 L -3.03006 14.94083" />
    <path d="M -1.08026 17.74901 C -1.11 17.65 -1.6 16.23 -2.16633 14.58281 L -2.59819 14.76182 C -3.17 13.11 -3.66 11.67 -3.68426 11.55467 L -4.11612 11.73368" />
    <path d="M -2.16633 14.58281 C -2.74 12.94 -3.23 11.49 -3.25239 11.37566 L -3.68426 11.55467 C -3.75 11.29 -3.75 10.77 -3.69535 10.58263 L -4.12722 10.76164" />
    <path d="M -3.25239 11.37566 C -3.31 11.11 -3.32 10.59 -3.26348 10.40362 L -3.69535 10.58263 C -3.67 10.5 -2.74 8.31 -1.62184 5.70778 L -2.05371 5.88679" />
    <path d="M -3.26348 10.40362 C -3.24 10.32 -2.31 8.13 -1.18998 5.52877 L -1.62184 5.70778 C 0.22 1.42 0.41 0.96 0.42176 0.7258 L -0.0101 0.90481" />
    <path d="M -1.18998 5.52877 C 0.65 1.24 0.84 0.78 0.85363 0.54679 L 0.42176 0.7258 C 0.43 0.52 0.42 0.43 0.36139 0.25108 L -0.07048 0.43009" />
    <path d="M 0.85363 0.54679 C 0.86 0.34 0.85 0.25 0.79326 0.07207 L 0.36139 0.25108 C 0.22 -0.16 -0.13 -0.6 -0.38513 -0.65934 L -0.817 -0.48033" />
    <path d="M 0.79326 0.07207 C 0.66 -0.34 0.3 -0.77 0.04673 -0.83835 L -0.38513 -0.65934 C -0.44 -0.67 -0.53 -0.65 -0.53548 -0.63941" />
    <path d="M -6.45629 8.44999 C -6.25 8.49 -6.54 8.49 -6.81035 8.34136 L -7.24222 8.52037" />
    <path d="M -1.62351 18.43721 C -1.72 18.46 -1.69 18.47 -1.60279 18.42774 L -2.03465 18.60675" />
    <path d="M -15.22768 9.38843 C -15.29 9.42 -15.28 9.42 -15.18698 9.36561 L -15.61885 9.54462" />
    <path d="M -13.00952 4.2511 A 0.2475 0.13038 247.48582 0 1 -12.95385 4.16291 A 0.2475 0.13038 247.48582 0 1 -12.76431 4.62019 A 0.2475 0.13038 247.48582 0 1 -13.00952 4.2511 Z" />
    <path d="M -12.40167 4.81856 A 0.2475 0.13038 247.48582 0 1 -12.346 4.73037 A 0.2475 0.13038 247.48582 0 1 -12.15645 5.18764 A 0.2475 0.13038 247.48582 0 1 -12.40167 4.81856 Z" />
    <path d="M -11.79382 5.38602 A 0.2475 0.13038 247.48582 0 1 -11.73814 5.29783 A 0.2475 0.13038 247.48582 0 1 -11.5486 5.7551 A 0.2475 0.13038 247.48582 0 1 -11.79382 5.38602 Z" />
    <path d="M -11.18597 5.95348 A 0.2475 0.13038 247.48582 0 1 -11.13029 5.86529 A 0.2475 0.13038 247.48582 0 1 -10.94075 6.32256 A 0.2475 0.13038 247.48582 0 1 -11.18597 5.95348 Z" />
    <path d="M -10.57811 6.52094 A 0.2475 0.13038 247.48582 0 1 -10.52244 6.43275 A 0.2475 0.13038 247.48582 0 1 -10.3329 6.89002 A 0.2475 0.13038 247.48582 0 1 -10.57811 6.52094 Z" />
    <path d="M -9.97026 7.0884 A 0.2475 0.13038 247.48582 0 1 -9.91459 7.0002 A 0.2475 0.13038 247.48582 0 1 -9.72505 7.45748 A 0.2475 0.13038 247.48582 0 1 -9.97026 7.0884 Z" />
    <path d="M -16.65663 0.84635 A 0.2475 0.13038 247.48582 0 1 -16.60096 0.75816 A 0.2475 0.13038 247.48582 0 1 -16.41141 1.21544 A 0.2475 0.13038 247.48582 0 1 -16.65663 0.84635 Z" />
    <path d="M -16.04878 1.41381 A 0.2475 0.13038 247.48582 0 1 -15.9931 1.32562 A 0.2475 0.13038 247.48582 0 1 -15.80356 1.78289 A 0.2475 0.13038 247.48582 0 1 -16.04878 1.41381 Z" />
    <path d="M -15.44093 1.98127 A 0.2475 0.13038 247.48582 0 1 -15.38525 1.89308 A 0.2475 0.13038 247.48582 0 1 -15.19571 2.35035 A 0.2475 0.13038 247.48582 0 1 -15.44093 1.98127 Z" />
    <path d="M -14.83307 2.54873 A 0.2475 0.13038 247.48582 0 1 -14.7774 2.46054 A 0.2475 0.13038 247.48582 0 1 -14.58786 2.91781 A 0.2475 0.13038 247.48582 0 1 -14.83307 2.54873 Z" />
    <path d="M -14.22522 3.11619 A 0.2475 0.13038 247.48582 0 1 -14.16955 3.028 A 0.2475 0.13038 247.48582 0 1 -13.98001 3.48527 A 0.2475 0.13038 247.48582 0 1 -14.22522 3.11619 Z" />
    <path d="M -13.61737 3.68365 A 0.2475 0.13038 247.48582 0 1 -13.5617 3.59545 A 0.2475 0.13038 247.48582 0 1 -13.37216 4.05273 A 0.2475 0.13038 247.48582 0 1 -13.61737 3.68365 Z" />
    <path d="M -9.36241 7.65585 A 0.2475 0.13038 247.48582 0 1 -9.30674 7.56766 A 0.2475 0.13038 247.48582 0 1 -9.1172 8.02494 A 0.2475 0.13038 247.48582 0 1 -9.36241 7.65585 Z" />
    <path d="M -8.75456 8.22331 A 0.2475 0.13038 247.48582 0 1 -8.69889 8.13512 A 0.2475 0.13038 247.48582 0 1 -8.50935 8.59239 A 0.2475 0.13038 247.48582 0 1 -8.75456 8.22331 Z" />
    <path d="M -7.53886 9.35823 A 0.2475 0.13038 247.48582 0 1 -7.48319 9.27004 A 0.2475 0.13038 247.48582 0 1 -7.29364 9.72731 A 0.2475 0.13038 247.48582 0 1 -7.53886 9.35823 Z" />
    <path d="M -8.14671 8.79077 A 0.2475 0.13038 247.48582 0 1 -8.09104 8.70258 A 0.2475 0.13038 247.48582 0 1 -7.9015 9.15985 A 0.2475 0.13038 247.48582 0 1 -8.14671 8.79077 Z" />
    <path d="M -4.71821 7.90601 A 0.2475 0.13038 247.48582 0 1 -4.73868 7.54274 A 0.2475 0.13038 247.48582 0 1 -4.54914 8.00001 A 0.2475 0.13038 247.48582 0 1 -4.71821 7.90601 Z" />
    <path d="M -4.41801 7.36203 A 0.2475 0.13038 247.48582 0 1 -4.43848 6.99876 A 0.2475 0.13038 247.48582 0 1 -4.24893 7.45604 A 0.2475 0.13038 247.48582 0 1 -4.41801 7.36203 Z" />
    <path d="M -4.1178 6.81806 A 0.2475 0.13038 247.48582 0 1 -4.13827 6.45479 A 0.2475 0.13038 247.48582 0 1 -3.94873 6.91206 A 0.2475 0.13038 247.48582 0 1 -4.1178 6.81806 Z" />
    <path d="M -3.81759 6.27409 A 0.2475 0.13038 247.48582 0 1 -3.83806 5.91082 A 0.2475 0.13038 247.48582 0 1 -3.64852 6.36809 A 0.2475 0.13038 247.48582 0 1 -3.81759 6.27409 Z" />
    <path d="M -3.51738 5.73011 A 0.2475 0.13038 247.48582 0 1 -3.53785 5.36684 A 0.2475 0.13038 247.48582 0 1 -3.34831 5.82412 A 0.2475 0.13038 247.48582 0 1 -3.51738 5.73011 Z" />
    <path d="M -3.21718 5.18614 A 0.2475 0.13038 247.48582 0 1 -3.23764 4.82287 A 0.2475 0.13038 247.48582 0 1 -3.0481 5.28014 A 0.2475 0.13038 247.48582 0 1 -3.21718 5.18614 Z" />
    <path d="M -2.91697 4.64217 A 0.2475 0.13038 247.48582 0 1 -2.93744 4.2789 A 0.2475 0.13038 247.48582 0 1 -2.7479 4.73617 A 0.2475 0.13038 247.48582 0 1 -2.91697 4.64217 Z" />
    <path d="M -2.61676 4.0982 A 0.2475 0.13038 247.48582 0 1 -2.63723 3.73493 A 0.2475 0.13038 247.48582 0 1 -2.44769 4.1922 A 0.2475 0.13038 247.48582 0 1 -2.61676 4.0982 Z" />
    <path d="M -2.31655 3.55422 A 0.2475 0.13038 247.48582 0 1 -2.33702 3.19095 A 0.2475 0.13038 247.48582 0 1 -2.14748 3.64823 A 0.2475 0.13038 247.48582 0 1 -2.31655 3.55422 Z" />
    <path d="M -2.01634 3.01025 A 0.2475 0.13038 247.48582 0 1 -2.03681 2.64698 A 0.2475 0.13038 247.48582 0 1 -1.84727 3.10425 A 0.2475 0.13038 247.48582 0 1 -2.01634 3.01025 Z" />
    <path d="M -1.71614 2.46628 A 0.2475 0.13038 247.48582 0 1 -1.73661 2.10301 A 0.2475 0.13038 247.48582 0 1 -1.54706 2.56028 A 0.2475 0.13038 247.48582 0 1 -1.71614 2.46628 Z" />
    <path d="M -1.41593 1.9223 A 0.2475 0.13038 247.48582 0 1 -1.4364 1.55903 A 0.2475 0.13038 247.48582 0 1 -1.24686 2.01631 A 0.2475 0.13038 247.48582 0 1 -1.41593 1.9223 Z" />
    <path d="M 11.32802 0.82294 L 10.89615 1.00195 L 10.46429 1.18096" />
    <path d="M 5.82884 -4.18049 L 5.39697 -4.00148 L 4.96511 -3.82247" />
    <path d="M 0.43884 -9.10757 L 0.00698 -8.92856 L -0.42489 -8.74955" />
    <path d="M 16.51486 10.91879 L 16.083 11.0978 L 15.65113 11.27681" />
    <path d="M 2.91069 1.87 L 2.47883 2.04902 L 2.04696 2.22803" />
    <path d="M -1.19165 18.2582 L -1.62351 18.43721 L -2.05538 18.61622" />
    <path d="M -14.79582 9.20942 L -15.22768 9.38843 L -15.65955 9.56744" />
</svg>